<svg viewBox="0 0 40 45"  xmlns="http://www.w3.org/2000/svg">
<path class="lotomania__arrow-path lotomania__arrow-path_1"d="M0.178923 1.75762C0.178923 1.55313 0.257384 1.36169 0.401232 1.21811C0.553797 1.06583 0.763031 0.991863 0.994059 1.00492L38.3987 0.996216C38.8303 0.996216 39.1833 1.34864 39.1833 1.77938C39.1833 1.99257 39.0962 2.18836 38.9436 2.34064L20.845 20.423C20.5399 20.7275 20.1345 20.8929 19.7029 20.8929C19.2714 20.8929 18.866 20.7275 18.5609 20.423L0.401232 2.29713C0.257384 2.15355 0.178923 1.96211 0.178923 1.75762ZM2.82484 2.56254L19.0404 18.7479C19.2191 18.9262 19.4545 19.022 19.7029 19.022C19.9514 19.022 20.1868 18.9262 20.3655 18.7479L36.581 2.56254L2.82484 2.56254Z" fill="white"/>
<path class="lotomania__arrow-path lotomania__arrow-path_2" d="M0.178943 13.3005C0.178943 13.096 0.257404 12.9045 0.401251 12.761C0.697664 12.4651 1.18151 12.4651 1.47793 12.761L19.0404 30.2864C19.2191 30.4647 19.4545 30.5605 19.703 30.5605C19.9514 30.5605 20.1868 30.4647 20.3655 30.2864L37.8277 12.861C38.1241 12.5652 38.608 12.5652 38.9044 12.861C39.0482 13.0046 39.1267 13.196 39.1267 13.4005C39.1267 13.605 39.0482 13.7965 38.9044 13.9401L20.8407 31.9702C20.5355 32.2747 20.1301 32.44 19.6986 32.44C19.2671 32.44 18.8617 32.2747 18.5565 31.9702L0.401251 13.84C0.257404 13.6964 0.178943 13.505 0.178943 13.3005Z" fill="white"/>
<path class="lotomania__arrow-path lotomania__arrow-path_3" d="M0.178943 24.8434C0.178943 24.6389 0.257404 24.4475 0.401251 24.3039C0.545098 24.1603 0.736896 24.082 0.94177 24.082C1.14664 24.082 1.33844 24.1603 1.48229 24.3039L19.0447 41.8293C19.2235 42.0077 19.4588 42.1034 19.7073 42.1034C19.9558 42.1034 20.1912 42.0077 20.3699 41.8293L37.8277 24.404C38.1241 24.1081 38.608 24.1081 38.9044 24.404C39.0482 24.5476 39.1267 24.739 39.1267 24.9435C39.1267 25.148 39.0482 25.3394 38.9044 25.483L20.2391 44.1135C20.0953 44.2571 19.9035 44.3354 19.6986 44.3354C19.4981 44.3354 19.3019 44.2528 19.1581 44.1135L0.401251 25.3829C0.257404 25.2394 0.178943 25.0479 0.178943 24.8434Z" fill="white"/>
</svg>
