<svg width="14" height="14" viewBox="0 0 14 14" fill="none" xmlns="http://www.w3.org/2000/svg">
<path fill-rule="evenodd" clip-rule="evenodd" d="M3.14544 3.0503C3.39364 3.0503 3.59482 2.87437 3.59482 2.65739V0.843599C3.59482 0.62662 3.39364 0.450684 3.14544 0.450684C2.89724 0.450684 2.69606 0.62662 2.69606 0.843599V2.65739C2.69606 2.87437 2.89724 3.0503 3.14544 3.0503Z" fill="black"/>
<path fill-rule="evenodd" clip-rule="evenodd" d="M4.0441 2.1837H8.53931V1.31704H4.0441V2.1837Z" fill="black"/>
<path fill-rule="evenodd" clip-rule="evenodd" d="M0.733327 10.6994V4.75886H11.8506V10.6994C11.8506 11.0935 11.5307 11.4142 11.1377 11.4142H1.44634C1.05315 11.4142 0.733327 11.0935 0.733327 10.6994ZM11.1377 12.1504C11.9353 12.1504 12.5842 11.4997 12.5842 10.7V2.76741C12.5842 1.96768 11.9353 1.31704 11.1377 1.31704H10.1837V2.05255H11.1377C11.5307 2.05255 11.8506 2.37328 11.8506 2.76741V4.02391H0.73336V2.76741C0.73336 2.37328 1.05318 2.05255 1.44637 2.05255H2.40031V1.31704H1.44637C0.648635 1.31704 -0.000244141 1.96768 -0.000244141 2.76741V10.7C-0.000244141 11.4997 0.648635 12.1504 1.44637 12.1504H11.1377Z" fill="black"/>
<path fill-rule="evenodd" clip-rule="evenodd" d="M9.43794 3.0503C9.68614 3.0503 9.88732 2.87437 9.88732 2.65739V0.843599C9.88732 0.62662 9.68614 0.450684 9.43794 0.450684C9.18973 0.450684 8.98856 0.62662 8.98856 0.843599V2.65739C8.98856 2.87437 9.18973 3.0503 9.43794 3.0503Z" fill="black"/>
<path fill-rule="evenodd" clip-rule="evenodd" d="M4.94373 7.38365H7.19063V5.65057H4.94373V7.38365Z" fill="black"/>
<path fill-rule="evenodd" clip-rule="evenodd" d="M4.94373 10.4173H7.19063V8.68418H4.94373V10.4173Z" fill="black"/>
<path fill-rule="evenodd" clip-rule="evenodd" d="M8.53931 7.38365H10.7862V5.65057H8.53931V7.38365Z" fill="black"/>
<path fill-rule="evenodd" clip-rule="evenodd" d="M8.53931 10.4173H10.7862V8.68418H8.53931V10.4173Z" fill="black"/>
<path fill-rule="evenodd" clip-rule="evenodd" d="M1.79745 7.38365H4.04435V5.65057H1.79745V7.38365Z" fill="black"/>
<path fill-rule="evenodd" clip-rule="evenodd" d="M1.79745 10.4173H4.04435V8.68418H1.79745V10.4173Z" fill="black"/>
<path fill-rule="evenodd" clip-rule="evenodd" d="M12.8483 3.06645V10.9346C12.8483 11.9602 12.0409 12.7947 11.0485 12.7947H1.57753C1.50835 12.7947 1.4402 12.7902 1.37301 12.7823C1.7327 13.1924 2.25176 13.4504 2.82818 13.4504H11.5175C12.6012 13.4504 13.4827 12.5392 13.4827 11.4193V4.55923C13.4827 3.96949 13.238 3.43787 12.8483 3.06645Z" fill="black"/>
</svg>
