<svg width="12" height="18" viewBox="0 0 12 18" fill="none" xmlns="http://www.w3.org/2000/svg">
<path d="M10.4141 7.25683L10.9695 7.42631L10.9739 7.41168L10.9776 7.39684L10.4141 7.25683ZM5.72006 16L5.21677 16.2896L5.71791 17.1605L6.22228 16.2915L5.72006 16ZM1.06133 7.36035L0.513762 7.5536L1.06133 7.36035ZM5.72483 2.61797C4.0565 2.61797 2.67964 3.94195 2.67964 5.60447H3.84098C3.84098 4.60963 4.67129 3.77932 5.72483 3.77932V2.61797ZM2.67964 5.60447C2.67964 7.26709 4.0561 8.59246 5.72483 8.59246V7.43112C4.67169 7.43112 3.84098 6.60019 3.84098 5.60447H2.67964ZM5.72483 8.59246C7.39356 8.59246 8.77003 7.26709 8.77003 5.60447H7.60868C7.60868 6.60019 6.77798 7.43112 5.72483 7.43112V8.59246ZM8.77003 5.60447C8.77003 3.94195 7.39316 2.61797 5.72483 2.61797V3.77932C6.77837 3.77932 7.60868 4.60963 7.60868 5.60447H8.77003ZM9.85868 7.08736C9.7721 7.37112 9.45516 8.03872 8.98747 8.9383C8.53137 9.81558 7.96088 10.8597 7.40154 11.8643C6.8426 12.8683 6.29657 13.8295 5.89015 14.54C5.68698 14.8951 5.5188 15.1874 5.40145 15.3909C5.34278 15.4926 5.29682 15.5721 5.26556 15.6262C5.24993 15.6532 5.23797 15.6738 5.22994 15.6877C5.22592 15.6946 5.22288 15.6998 5.22086 15.7033C5.21985 15.7051 5.21909 15.7064 5.21858 15.7073C5.21833 15.7077 5.21815 15.708 5.21802 15.7082C5.21796 15.7083 5.21792 15.7084 5.21789 15.7085C5.21786 15.7085 5.21785 15.7085 5.72006 16C6.22228 16.2915 6.2223 16.2914 6.22234 16.2914C6.22237 16.2913 6.22242 16.2912 6.22249 16.2911C6.22263 16.2909 6.22283 16.2905 6.2231 16.2901C6.22363 16.2891 6.22442 16.2878 6.22546 16.286C6.22755 16.2824 6.23065 16.2771 6.23473 16.27C6.24288 16.2559 6.25497 16.2351 6.27073 16.2078C6.30226 16.1534 6.34849 16.0734 6.40746 15.9711C6.5254 15.7666 6.69427 15.4731 6.89821 15.1166C7.30601 14.4037 7.85439 13.4384 8.41622 12.4293C8.97766 11.4209 9.5543 10.3657 10.0179 9.47401C10.4699 8.60465 10.8451 7.83376 10.9695 7.42631L9.85868 7.08736ZM5.72006 16C6.22335 15.7104 6.22334 15.7104 6.22331 15.7103C6.22328 15.7103 6.22324 15.7102 6.22318 15.7101C6.22306 15.7099 6.22288 15.7096 6.22263 15.7091C6.22214 15.7083 6.2214 15.707 6.22041 15.7053C6.21843 15.7018 6.21547 15.6967 6.21155 15.6898C6.20371 15.6762 6.19205 15.6559 6.1768 15.6293C6.1463 15.5762 6.10146 15.498 6.0442 15.398C5.92966 15.1979 5.76542 14.9104 5.56676 14.5609C5.16936 13.8618 4.63454 12.9155 4.08443 11.9256C3.534 10.9352 2.96971 9.90374 2.51278 9.03375C2.0471 8.14707 1.7162 7.47112 1.60891 7.1671L0.513762 7.5536C0.654694 7.95293 1.03025 8.70861 1.48462 9.57374C1.94775 10.4556 2.51711 11.4961 3.06931 12.4898C3.62182 13.484 4.1586 14.4338 4.55714 15.1348C4.75645 15.4854 4.92127 15.774 5.03629 15.9749C5.09381 16.0754 5.13888 16.154 5.1696 16.2075C5.18496 16.2343 5.19672 16.2547 5.20467 16.2686C5.20864 16.2755 5.21165 16.2807 5.21368 16.2842C5.21469 16.286 5.21546 16.2873 5.21598 16.2882C5.21624 16.2887 5.21643 16.289 5.21657 16.2893C5.21663 16.2894 5.21668 16.2895 5.21672 16.2895C5.21675 16.2896 5.21677 16.2896 5.72006 16ZM1.60891 7.1671C1.45667 6.73574 1.37169 6.27741 1.37169 5.80064H0.210343C0.210343 6.41702 0.320443 7.00582 0.513762 7.5536L1.60891 7.1671ZM1.37169 5.80064C1.37169 3.48433 3.30383 1.58067 5.72006 1.58067V0.419327C2.69151 0.419327 0.210343 2.81425 0.210343 5.80064H1.37169ZM5.72006 1.58067C8.13685 1.58067 10.069 3.48437 10.069 5.80064H11.2303C11.2303 2.81421 8.74909 0.419327 5.72006 0.419327V1.58067ZM10.069 5.80064C10.069 5.99244 10.0209 6.30689 9.96201 6.60761C9.93399 6.75062 9.90587 6.87901 9.88474 6.97163C9.87421 7.01783 9.86548 7.05483 9.85946 7.07997C9.85646 7.09253 9.85413 7.10211 9.85261 7.10837C9.85184 7.1115 9.85128 7.1138 9.85093 7.11522C9.85075 7.11593 9.85063 7.11643 9.85056 7.1167C9.85053 7.11683 9.85051 7.11691 9.8505 7.11693C9.8505 7.11694 9.8505 7.11694 9.85051 7.11692C9.85051 7.11691 9.85052 7.11689 9.85052 7.11688C9.85052 7.11686 9.85053 7.11683 10.4141 7.25683C10.9776 7.39684 10.9776 7.3968 10.9776 7.39676C10.9776 7.39674 10.9776 7.3967 10.9777 7.39666C10.9777 7.39659 10.9777 7.3965 10.9777 7.39639C10.9778 7.39618 10.9778 7.39592 10.9779 7.3956C10.9781 7.39495 10.9783 7.39407 10.9786 7.39298C10.9791 7.39078 10.9799 7.38769 10.9808 7.38375C10.9828 7.37588 10.9855 7.36459 10.9889 7.35023C10.9958 7.32154 11.0055 7.2805 11.017 7.22987C11.0401 7.12884 11.0708 6.98844 11.1017 6.83092C11.1605 6.53055 11.2303 6.11691 11.2303 5.80064H10.069Z" fill="black"/>
</svg>
