<svg width="70" height="66" viewBox="0 0 70 66" fill="none" xmlns="http://www.w3.org/2000/svg">
<g clip-path="url(#clip0)">
<path d="M60.6717 0.0117188H9.33166C4.47048 0.0117188 0 4.45656 0 9.3079V56.6955C0 61.5452 4.47048 65.9365 9.33166 65.9365H60.2055C65.0684 65.9365 69.9966 61.5452 69.9966 56.6955V9.3079C69.9966 4.45656 65.5329 0.0117188 60.6717 0.0117188Z" fill="url(#paint0_linear)"/>
<path d="M23.0734 37.459V50.6145L24.5004 50.9006L24.5155 57.9417L19.272 57.9333L19.2686 51.8809L20.595 51.0461V38.5681L17.8701 40.0587V54.7314C17.959 55.9861 16.7131 58.3014 14.3504 58.1224C11.9894 57.945 11.208 55.3973 11.208 53.5153C11.208 51.635 11.815 50.1628 13.1565 50.019C14.4997 49.8768 15.5393 51.2502 15.1972 53.4333C15.1821 53.5203 15.4001 53.3262 15.4219 53.2409C15.5779 52.6052 15.5058 50.7902 15.5058 50.7902L15.4907 41.3485L13.2303 43.013L13.2185 38.4661C13.2185 38.4661 16.3492 35.5101 18.6884 33.6833C21.0293 31.8566 24.8022 29.6567 24.8022 29.6567L24.8005 36.7631L23.0734 37.459Z" fill="url(#paint1_linear)" stroke="#EC1C24" stroke-width="0.6622" stroke-miterlimit="10"/>
<path d="M37.687 40.0437L39.8149 40.4887V34.0698L41.8322 34.3542V49.3164L40.2861 49.8551L40.2928 57.9535H45.8449V50.3787L44.3039 49.4787V34.7942L46.0226 35.1773V42.0127L47.8856 42.7286V30.5417C44.4615 28.7216 41.4029 27.8752 37.687 27.5205V40.0437Z" fill="url(#paint2_linear)" stroke="#EC1C24" stroke-width="0.6622" stroke-miterlimit="10"/>
<path d="M35.9902 52.99C35.9902 52.99 36.1612 58.1391 30.8791 58.1391C25.971 58.1391 26.469 52.4797 26.469 52.4797V31.7628C26.573 29.2268 28.8267 27.2109 31.4543 27.2109C34.6571 27.2109 36.0053 29.4509 36.0137 32.1208L35.9902 52.99ZM33.5604 37.1093C33.5537 34.6636 31.6689 34.5214 31.1826 34.6017C30.698 34.6837 28.9575 35.1136 28.9575 36.7664C28.9575 36.7664 28.9373 47.4276 28.9373 48.7375C28.929 49.4669 29.0732 50.9491 31.3855 50.9491C32.457 50.9491 33.5604 50.3016 33.5604 47.9764V37.1093Z" fill="url(#paint3_linear)" stroke="#EC1C24" stroke-width="0.6622" stroke-miterlimit="10"/>
<path d="M58.017 40.5788V54.6126C58.017 58.2527 54.1502 58.1055 54.1502 58.1055C51.9401 58.1055 49.3745 55.5627 49.3376 53.0919V35.8161C49.3376 35.8161 49.45 33.4707 51.4857 33.1479C55.0607 32.3148 58.0505 37.5241 58.017 40.5788ZM55.656 43.4026C55.6644 42.787 55.8136 40.2007 54.5476 39.3392C52.688 38.0712 51.8613 39.5634 51.7976 40.9234L51.806 50.0607C51.806 50.0607 51.6618 52.1149 53.8383 52.4796C55.6342 52.7808 55.6644 51.0978 55.6644 51.0978C55.6644 51.0978 55.6459 44.3545 55.656 43.4026Z" fill="url(#paint4_linear)" stroke="#EC1C24" stroke-width="0.6622" stroke-miterlimit="10"/>
<path d="M24.9316 10.3935V17.7491C24.9333 17.8294 24.9702 19.795 24.4772 21.7573C23.3134 26.4113 19.3728 29.5379 19.2286 29.6399L19.2085 26.5652C19.2085 26.5652 19.9597 26.3511 20.3739 25.9947C21.3867 25.1198 22.1329 23.9187 22.4281 22.9283C20.8367 21.7992 19.3091 18.8783 18.9335 16.8692L15.0164 27.2477V31.3496L15.4339 32.3433L12.9774 34.2303L13.2641 32.7833V10.3868L12.8784 9.42321H19.9346C20.3136 9.43492 20.654 9.61224 20.8803 9.91002C21.0413 10.1208 21.214 10.4905 21.1302 11.0526L19.9447 14.2311C19.9447 14.2311 21.053 20.061 23.1357 21.1133C23.191 20.69 23.2346 20.4207 23.2346 19.6244V10.3951L23.0015 9.41484H25.2368L24.9316 10.3935ZM18.4506 11.5779C18.3785 11.4407 18.2527 11.3604 18.0699 11.3286L14.956 11.3303V22.0969L18.3936 12.6217C18.5193 12.1299 18.568 11.7937 18.4506 11.5779ZM31.7497 21.8109C29.1405 21.207 27.7739 18.9988 27.4586 16.0394C27.2607 14.1926 27.5978 13.1219 27.8795 12.5197C28.4496 11.3102 29.1455 11.352 29.5245 11.352C29.9269 11.352 30.5088 11.8388 30.5138 11.8388L30.7821 12.0379V9.43994L28.6559 9.42823C27.415 9.42321 25.3894 11.6381 25.5571 15.8203C25.718 19.8201 27.9482 23.0036 31.6708 24.1646L31.8922 24.2315L31.9291 21.8711L31.7497 21.8109ZM43.885 20.9627C43.8515 17.995 43.1656 16.9428 42.6793 16.0478C42.2283 15.2181 40.7074 13.3411 40.7074 13.3411L44.8324 9.43826H41.2607L41.4636 9.73102C41.472 9.73938 42.1243 10.2864 40.5565 11.8204C40.0886 12.2788 39.2083 12.9898 38.8226 13.2591L38.8327 10.3885L39.0154 9.43994H36.7333L37.1273 10.3885V20.8055C36.3325 20.5328 33.569 20.1397 32.6619 16.0863C32.2544 14.2695 32.5763 12.7957 33.4382 11.8338C33.8826 11.3353 34.3437 11.2717 35.0547 11.3688C35.6567 11.4507 36.2 11.981 36.2 11.981L36.143 9.44997L33.8591 9.43826C33.3594 9.43826 32.7155 9.81466 32.1806 10.4136C31.639 11.0242 30.7368 12.3524 30.8341 14.85C30.9548 18.0703 32.5596 20.1162 33.7065 21.1835C35.3817 22.7427 39.0339 23.8166 39.0339 23.8166L38.8209 22.5536V16.3874C38.8159 15.7835 39.2133 14.5489 39.6308 14.3314C39.9193 14.6325 41.8979 16.2519 42.1092 20.7017C42.1092 20.7017 42.1511 22.2391 42.1511 22.669C42.1511 23.7497 42.287 24.2968 42.287 24.2968L44.4249 24.8706C44.4249 24.8706 44.0544 23.6945 43.9722 22.7109C43.9085 21.9213 43.885 20.9627 43.885 20.9627ZM57.6586 30.0163L54.59 27.3196V16.2318L57.0399 16.7788L56.9594 15.3586L54.59 14.927V11.3353H56.7598L57.4524 12.1717V9.42823H52.5023L52.8914 10.3851V27.5288L52.4906 27.9955L58.046 33.4072L58.0577 30.0146H57.6586V30.0163ZM52.0898 17.7675C52.0898 17.7692 52.0898 17.7709 52.0898 17.7742C52.0898 17.7776 52.0898 17.7809 52.0898 17.7826C52.0898 17.7976 52.0898 17.8144 52.0898 17.8294C52.0898 17.8461 52.0898 17.8612 52.0898 17.8763C52.0898 17.8779 52.0898 17.8813 52.0898 17.8846C52.0898 17.8863 52.0898 17.8913 52.0898 17.8913C52.0512 21.7456 51.5298 26.3879 48.337 26.3996C45.0102 26.4113 44.5775 21.1166 44.6346 17.9298C44.6346 17.9147 44.6362 17.898 44.6362 17.8829C44.6362 17.8696 44.6362 17.8579 44.6346 17.8445C44.6346 17.8378 44.6346 17.8328 44.6346 17.8277C44.6346 17.8211 44.6346 17.816 44.6346 17.811C44.6362 17.7976 44.6362 17.7859 44.6362 17.7725C44.6362 17.7592 44.6346 17.7408 44.6346 17.7257C44.5792 14.5389 45.0118 9.24421 48.337 9.25759C51.5298 9.27098 52.0512 13.9115 52.0898 17.7675ZM50.2084 17.8846C50.2084 17.8662 50.2084 17.8478 50.2084 17.8294C50.2084 17.811 50.2084 17.7909 50.2084 17.7742C50.1883 16.2954 50.0709 14.0922 49.9837 13.4364C49.7875 11.9827 49.1872 11.3571 48.3773 11.3571C47.5674 11.3571 47.0006 12.0078 46.796 13.3528C46.5898 14.6995 46.568 16.093 46.5646 17.7056C46.5629 17.7424 46.5646 17.7776 46.5646 17.8144C46.5646 17.8194 46.5646 17.8244 46.5646 17.8311C46.5646 17.8361 46.5646 17.8428 46.5646 17.8478C46.5646 17.8829 46.5629 17.9181 46.5646 17.9549C46.5663 19.5675 46.5881 20.961 46.796 22.3077C47.0006 23.6527 47.5674 24.3051 48.3773 24.3051C49.1872 24.3051 49.7875 23.6795 49.9837 22.2241C50.0709 21.5683 50.1883 19.3634 50.2084 17.8846Z" fill="#231F20" stroke="#231F20" stroke-width="0.2759" stroke-miterlimit="10"/>
</g>
<defs>
<linearGradient id="paint0_linear" x1="0" y1="32.9743" x2="69.9972" y2="32.9743" gradientUnits="userSpaceOnUse">
<stop stop-color="#FFF100"/>
<stop offset="1" stop-color="#FFF100"/>
</linearGradient>
<linearGradient id="paint1_linear" x1="18.0054" y1="58.3524" x2="18.0054" y2="29.7107" gradientUnits="userSpaceOnUse">
<stop offset="0.5015" stop-color="#EC1C24"/>
<stop offset="1" stop-color="#F9A51A"/>
</linearGradient>
<linearGradient id="paint2_linear" x1="42.7858" y1="58.1914" x2="42.7858" y2="27.5756" gradientUnits="userSpaceOnUse">
<stop offset="0.5015" stop-color="#EC1C24"/>
<stop offset="1" stop-color="#F9A51A"/>
</linearGradient>
<linearGradient id="paint3_linear" x1="31.2351" y1="58.3806" x2="31.2351" y2="27.271" gradientUnits="userSpaceOnUse">
<stop offset="0.5015" stop-color="#EC1C24"/>
<stop offset="1" stop-color="#F9A51A"/>
</linearGradient>
<linearGradient id="paint4_linear" x1="53.678" y1="58.3025" x2="53.678" y2="33.1063" gradientUnits="userSpaceOnUse">
<stop offset="0.5015" stop-color="#EC1C24"/>
<stop offset="1" stop-color="#F9A51A"/>
</linearGradient>
<clipPath id="clip0">
<path d="M0 0H70V66H0V0Z" fill="white"/>
</clipPath>
</defs>
</svg>
