<svg width="121" height="80" viewBox="0 0 121 80" fill="none" xmlns="http://www.w3.org/2000/svg">
<path d="M73.0437 26.4365V75.7887H74.2372V53.4102L79.071 48.5764C79.1903 48.457 79.1903 48.278 79.071 48.1885C78.9516 48.0691 78.7726 48.0691 78.6831 48.1885L74.2671 52.6045V50.3215L80.2944 44.2942C80.4137 44.1748 80.4137 43.9958 80.2944 43.9063C80.175 43.7869 79.996 43.7869 79.9065 43.9063L74.2969 49.5159V47.2328L77.042 44.4877C77.1614 44.3684 77.1614 44.1893 77.042 44.0998C76.9227 43.9805 76.7436 43.9805 76.6541 44.0998L74.3267 46.4272V26.4365H73.0437Z" fill="white"/>
<path d="M65.6437 44.07C65.5243 43.9506 65.3453 43.9506 65.2558 44.07L57.6769 51.6489C57.5576 51.7682 57.5576 51.9472 57.6769 52.0368C57.7963 52.1561 57.9753 52.1561 58.0648 52.0368L65.6437 44.4579C65.7332 44.3684 65.7332 44.1893 65.6437 44.07Z" fill="white"/>
<path d="M67.3146 50.1587L59.7358 57.7376C59.6164 57.8569 59.6164 58.0359 59.7358 58.1255C59.8551 58.2448 60.0341 58.2448 60.1237 58.1255L67.7025 50.5466C67.8219 50.4272 67.8219 50.2482 67.7025 50.1587C67.613 50.0692 67.434 50.0692 67.3146 50.1587Z" fill="white"/>
<path d="M68.8962 44.9063C68.7768 44.7869 68.5978 44.7869 68.5083 44.9063L56.4836 56.931C56.3642 57.0504 56.3642 57.2294 56.4836 57.3189C56.6029 57.4383 56.7819 57.4383 56.8715 57.3189L68.8962 45.2942C69.0155 45.1748 69.0155 44.9958 68.8962 44.9063Z" fill="white"/>
<path d="M88.8578 75.9976H29.3308V77.3999H88.8578V75.9976Z" fill="white"/>
<path d="M31.3598 75.9976H0.716064V77.3999H31.3598V75.9976Z" fill="white"/>
<path d="M73.7299 25.7205H51.3513V76.4452H73.7299V25.7205Z" stroke="white" stroke-width="1.5" stroke-miterlimit="10"/>
<path d="M27.3317 25.8099H4.95312V76.5347H27.3317V25.8099Z" stroke="white" stroke-width="1.5" stroke-miterlimit="10"/>
<path d="M85.2177 25.7205H73.5808V76.4452H85.2177V25.7205Z" stroke="white" stroke-width="1.5" stroke-miterlimit="10"/>
<path d="M44.1006 10.2046C44.9062 10.1151 45.4731 9.42884 45.4134 8.62321C45.3239 7.81758 44.6377 7.25066 43.832 7.31034C43.0264 7.39985 42.4296 8.08613 42.5191 8.89175C42.5788 9.66754 43.2949 10.2643 44.1006 10.2046Z" fill="white"/>
<path d="M0 1.99915V20.8568C0 21.9608 0.895143 22.856 1.99915 22.856H35.1791H54.9916H86.9183C88.0223 22.856 88.9175 21.9608 88.9175 20.8568V1.99915C88.9175 0.895143 88.0223 0 86.9183 0H1.99915C0.895143 0 0 0.895143 0 1.99915ZM45.9805 1.8798L47.2337 1.22336C47.353 1.16369 47.5321 1.22336 47.5917 1.34271L49.0538 4.14749C49.1135 4.26685 49.0836 4.41604 48.9345 4.50555V4.53539L47.6813 5.19183C47.5619 5.2515 47.3829 5.19183 47.3232 5.07247L45.8611 2.23786C45.8015 2.08867 45.8313 1.93948 45.9805 1.8798ZM43.3249 20.8568C43.2951 20.8867 43.2652 20.9165 43.2055 20.9165C39.9234 19.9915 37.6557 17.0375 37.6557 13.636C37.6557 9.45867 41.0572 6.08697 45.2644 6.05713C45.7119 6.05713 46.1595 6.08697 46.6071 6.17648C46.6369 6.17648 46.6668 6.20632 46.6369 6.23616C46.5474 6.8926 46.2789 9.13046 46.2192 9.60786C46.0998 10.3837 45.6523 10.5627 45.2047 10.8014C44.5781 11.1594 44.1604 11.3683 43.2055 11.0401C41.7733 10.503 40.9975 10.1449 40.1322 9.87641C39.8338 9.75705 39.5056 9.87641 39.3564 10.1748C39.3564 10.2046 39.3266 10.2046 39.3266 10.2345C39.2371 10.503 39.3564 10.8014 39.625 10.8909C39.625 10.8909 41.1766 11.4578 41.8032 11.7264C42.9967 12.2635 43.8023 12.4126 44.1902 13.3376C44.3991 13.815 44.787 14.7997 44.787 15.2174C44.787 15.844 44.6079 17.7537 44.6079 17.7537C44.5781 18.1117 44.4886 18.4399 44.3394 18.7383L43.3249 20.8568ZM45.4732 21.185C45.1749 21.185 44.8765 21.185 44.5781 21.1552C44.5483 21.1552 44.4886 21.1254 44.5184 21.0657V21.0359L45.5628 19.1561C45.7119 18.8875 45.8313 18.5891 45.8611 18.2907C45.9208 17.873 46.07 16.6795 46.07 16.6795C46.07 16.3513 46.249 16.0529 46.5474 15.9335L47.0845 15.7843C47.353 15.665 47.6514 15.7843 47.7708 16.0529C47.8603 16.2319 48.1587 16.7988 48.2482 17.0077C48.3079 17.1271 48.3079 17.2763 48.2183 17.3956C47.8305 17.8432 47.5917 18.0819 47.2635 18.4698C47.0547 18.7383 46.8458 19.0964 47.2337 19.4246C47.5917 19.7528 47.9498 19.3948 48.1885 19.1859C48.4571 18.9173 48.9046 18.3803 49.1732 18.0819C49.4119 17.873 49.5312 17.5746 49.5909 17.2763C49.5909 17.1271 49.5909 16.9779 49.5312 16.8585C49.4417 16.5005 48.6062 14.6207 48.0692 13.1288C47.5619 11.8457 47.353 10.4732 47.4724 9.10062L47.7409 6.59422C47.7409 6.56438 47.7708 6.53454 47.8006 6.56438C50.9336 7.69823 52.9626 10.682 52.8134 13.9941H52.8433C52.6642 17.9029 49.4715 21.0359 45.4732 21.185Z" fill="white"/>
<path d="M104.164 63.7959C104.164 64.2857 104.246 65.2653 104.246 65.3469C104.41 66.7347 104.493 66.8979 105.313 68.2857L110.239 76.5306C111.47 78.5714 114.59 76.7755 113.522 74.5714L109.172 65.9183L108.187 59.0612M100.716 33.5714C98.5 33.5714 96.694 35.3673 96.694 37.5714C96.694 39.7755 98.5 41.5714 100.716 41.5714C102.933 41.5714 104.739 39.7755 104.739 37.5714C104.739 35.3673 102.933 33.5714 100.716 33.5714ZM114.425 55.1428L113.194 49.0204C113.03 48.1224 112.373 47.2245 111.552 46.8163L107.366 44.6122C103.918 42.7347 98.7462 42.9796 99.5671 48.1224L101.537 57.5918C101.619 57.9183 101.619 58.2449 101.455 58.4898L97.9253 63.3877C97.4328 63.9592 97.1865 64.6939 97.1865 65.5102L97.4328 75.9592C97.4328 77.9183 101.045 77.9183 101.127 76.1224L101.701 66.4898L107.201 60.7755C108.104 59.7959 108.597 58.4898 108.351 56.8571C108.022 54.5714 107.694 51.3061 107.448 49.0204L109.993 50.0816L111.716 55.7959C112.291 57.1837 114.507 56.1224 114.425 55.1428ZM100.894 54.5L95.791 57.0204C94.3955 57.5102 92.7537 55.551 94.0671 54.3265C94.8059 53.5918 98.4808 51.459 100.041 50.3978L100.894 54.5Z" stroke="white" stroke-width="1.5" stroke-miterlimit="22.9256"/>
</svg>
