<svg width="120" height="79" viewBox="0 0 120 79" fill="none" xmlns="http://www.w3.org/2000/svg">
<path d="M45.4168 28.196L53.057 28.1354C53.6028 28.1354 54.0879 28.6205 54.0879 29.1662V30.864C54.0879 31.4098 53.6634 31.8948 53.057 31.8948L45.4168 31.9555C44.8711 31.9555 44.386 31.4704 44.386 30.9247V29.2268C44.3254 28.6205 44.8104 28.196 45.4168 28.196Z" fill="white" stroke="white" stroke-width="0.606367" stroke-miterlimit="10"/>
<path d="M33.1075 28.196L40.7477 28.1354C41.2934 28.1354 41.7785 28.6205 41.7785 29.1662V30.864C41.7785 31.4098 41.2934 31.8948 40.7477 31.8948L33.1075 31.9555C32.5618 31.9555 32.0767 31.4704 32.0767 30.9247V29.2268C32.016 28.6811 32.5011 28.196 33.1075 28.196Z" fill="white" stroke="white" stroke-width="0.606367" stroke-miterlimit="10"/>
<path d="M20.7376 28.2567L28.3778 28.196C28.9236 28.196 29.4087 28.6811 29.4087 29.2269V30.9247C29.4087 31.4704 28.9236 31.9555 28.3778 31.9555L20.7376 32.0162C20.1919 32.0162 19.7068 31.5311 19.7068 30.9853V29.2875C19.7068 28.7418 20.1919 28.2567 20.7376 28.2567Z" fill="white" stroke="white" stroke-width="0.606367" stroke-miterlimit="10"/>
<path d="M8.42828 28.3174L16.0685 28.2567C16.6142 28.2567 17.0993 28.7418 17.0993 29.2875V30.9854C17.0993 31.5311 16.6142 32.0162 16.0685 32.0162L8.42828 32.1375C7.88255 32.1375 7.39746 31.6524 7.39746 31.1066V29.4088C7.39746 28.8024 7.82192 28.3174 8.42828 28.3174Z" fill="white" stroke="white" stroke-width="0.606367" stroke-miterlimit="10"/>
<path d="M12.4911 6.97327C14.1889 6.97327 15.7655 7.82218 16.6751 9.09555C17.6452 7.82218 19.1612 6.97327 20.859 6.97327C23.7089 6.97327 26.0737 9.27746 26.0737 12.188C26.0737 15.0379 23.7695 17.4028 20.9196 17.4028C19.2218 17.4028 17.6452 16.5539 16.6751 15.2805C15.7655 16.5539 14.2496 17.4028 12.4911 17.4028C9.6412 17.4028 7.27637 15.0986 7.27637 12.2487C7.337 9.3381 9.6412 6.97327 12.4911 6.97327Z" fill="white" stroke="white" stroke-width="0.606367" stroke-miterlimit="10"/>
<path d="M104.323 47.9301C105.444 47.9301 106.353 47.0213 106.353 45.9001C106.353 44.779 105.444 43.8701 104.323 43.8701C103.202 43.8701 102.293 44.779 102.293 45.9001C102.293 47.0213 103.202 47.9301 104.323 47.9301Z" fill="white"/>
<path d="M33.8034 47.9301C34.9246 47.9301 35.8334 47.0213 35.8334 45.9001C35.8334 44.779 34.9246 43.8701 33.8034 43.8701C32.6823 43.8701 31.7734 44.779 31.7734 45.9001C31.7734 47.0213 32.6823 47.9301 33.8034 47.9301Z" fill="white"/>
<path d="M62.9969 51.0205C62.9969 50.6882 63.2343 50.4509 63.5665 50.4509H65.3229V48.1724H63.5665C63.1868 48.1724 62.9495 47.9351 62.9495 47.5553C62.9495 47.223 63.1868 46.9857 63.5665 46.9857H65.3229V39.6756C65.3229 38.5364 65.94 37.8718 67.0317 37.8718H71.6361C74.864 37.8718 77 40.0079 77 43.0459C77 46.0363 74.769 48.1724 71.4463 48.1724H68.6456V50.4509H72.4906C72.8703 50.4509 73.0602 50.6882 73.0602 51.0205C73.0602 51.3528 72.8228 51.5901 72.4906 51.5901H68.6456V52.5869C68.6456 53.6787 67.9811 54.2958 66.9843 54.2958C65.94 54.2958 65.3229 53.6312 65.3229 52.5869V51.5901H63.5665C63.1868 51.5901 62.9969 51.3528 62.9969 51.0205ZM70.6393 45.6566C72.5855 45.6566 73.6298 44.7072 73.6298 43.0933C73.6298 41.5269 72.633 40.5775 70.6393 40.5775H68.6456V45.6566H70.6393Z" fill="white"/>
<path d="M112.514 68.5771C112.514 71.0632 110.452 73.7312 107.966 73.7312H78.9212H49.2092H20.71C18.2239 73.7312 15.5558 71.0632 15.5558 68.5771V39.5H13.1304V68.5771C13.1304 72.761 16.526 76.1567 20.71 76.1567H51.3921H55.2122H72.7969H76.617H107.299C111.483 76.1567 114.879 72.761 114.879 68.5771H112.514Z" fill="white"/>
<path d="M112.42 21.6473H63.1228V24.0728H112.966C115.452 24.0728 117.514 26.7408 117.514 29.2269V62.5771C117.514 65.0632 115.452 67.7312 112.966 67.7312H83.9212H54.2092H25.71C23.2239 67.7312 20.5558 65.0632 20.5558 62.5771V39.3533H18.1304V62.5771C18.1304 66.761 21.526 70.1567 25.71 70.1567H56.3921H60.2122H77.7969H81.617H112.299C116.483 70.1567 119.879 66.761 119.879 62.5771V29.2269C120 25.043 116.604 21.6473 112.42 21.6473Z" fill="white"/>
<path d="M63.1835 30.4395C64.8207 29.4693 66.5791 28.9236 68.1557 28.9236H69.9748C75.7353 28.9236 86.5 34 86.5 45.8412C86.5 56 75.7353 62.8801 69.9748 62.8801H68.1557C62.3952 62.8801 52 57 52 45.8412C52 43 52.4692 41.1722 53.5 39.1712M24.1941 39.3531V52.7538C24.1941 53.2995 24.6185 53.7846 25.1643 53.8453C29.4088 54.2697 33.4109 57.6654 33.8353 61.9099C33.896 62.4557 34.3811 62.8801 34.9268 62.8801H103.204C103.749 62.8801 104.235 62.4557 104.295 61.9099C104.72 57.6654 107.509 54.8761 111.753 54.4516C112.299 54.391 112.724 53.9059 112.724 53.3602V38.3223C112.724 37.8372 112.36 37.4127 111.875 37.3521C107.509 36.9276 104.72 34.0777 104.295 29.7725C104.235 29.2874 103.81 28.9236 103.325 28.9236H63.1835" stroke="white" stroke-width="0.606367" stroke-miterlimit="10"/>
<path d="M60.5155 0.909424L3.03195 1.15197C2.42559 1.15197 1.94049 1.39452 1.51603 1.75834C1.15221 2.12216 0.909668 2.66789 0.909668 3.27425L1.03094 36.6851C1.03094 37.2914 1.27349 37.8372 1.63731 38.201C2.06177 38.5648 2.54686 38.8074 3.15323 38.8074L60.6368 38.5648C61.1825 38.5648 61.7283 38.3223 62.0921 37.8978C62.5165 37.534 62.6985 36.9883 62.6985 36.3819L62.6378 3.03171C62.6378 2.42534 62.3953 1.87961 61.9708 1.51579C61.607 1.15197 61.0613 0.909424 60.5155 0.909424Z" stroke="white" stroke-width="1.8191" stroke-miterlimit="10"/>
</svg>
