<svg width="96" height="76" viewBox="0 0 96 76" fill="none" xmlns="http://www.w3.org/2000/svg">
<g clip-path="url(#clip0)">
<path d="M85.3426 0.0708008H10.4907C4.53433 0.0708008 0.0705566 4.53457 0.0705566 10.5049V52.7712C0.0705566 58.7276 4.53433 63.1914 10.4907 63.1914H40.3422V72.3979H26.9787C26.0023 72.3979 25.3746 72.8861 25.3746 73.8626C25.3746 74.839 26.0023 75.3272 26.9787 75.3272H67.5712C68.5476 75.3272 69.1754 74.839 69.1754 73.8626C69.1754 72.8861 68.5476 72.3979 67.5712 72.3979H54.2078V63.1914H85.3147C91.271 63.1914 95.7348 58.7276 95.7348 52.7712V10.5049C95.7627 4.53457 91.2989 0.0708008 85.3426 0.0708008ZM51.1668 72.3979H43.425V63.1914H51.1668V72.3979ZM92.6939 52.7712C92.6939 56.8165 89.3739 60.1225 85.3426 60.1225H10.4907C6.44538 60.1225 3.1394 56.8026 3.1394 52.7712V10.5049C3.1394 6.45958 6.45933 3.15359 10.4907 3.15359H85.3286C89.3739 3.15359 92.6799 6.45958 92.6799 10.5049V52.7712H92.6939Z" fill="white" stroke="white" stroke-width="0.139493" stroke-miterlimit="10"/>
<path d="M82.7891 55.0161H13.2938C10.6852 55.0161 8.56494 52.8958 8.56494 50.2873V13.2938C8.56494 10.6852 10.6852 8.56494 13.2938 8.56494H82.8031C85.4116 8.56494 87.5319 10.6852 87.5319 13.2938V50.3012C87.5179 52.9097 85.3976 55.0161 82.7891 55.0161Z" stroke="white" stroke-width="0.8" stroke-miterlimit="10"/>
<path d="M34.1953 38.1484C34.9375 38.1484 35.375 37.6953 35.375 36.9219V33.25H40.4531V36.9219C40.4531 37.6953 40.8906 38.1484 41.6328 38.1484C42.375 38.1484 42.8125 37.6953 42.8125 36.9219V27.8047C42.8125 27.0234 42.375 26.5703 41.6328 26.5703C40.8906 26.5703 40.4531 27.0234 40.4531 27.8047V31.3047H35.375V27.8047C35.375 27.0234 34.9375 26.5703 34.1953 26.5703C33.4531 26.5703 33.0156 27.0234 33.0156 27.8047V36.9219C33.0156 37.6953 33.4531 38.1484 34.1953 38.1484ZM48.7188 38.1484C49.4609 38.1484 49.8984 37.6953 49.8984 36.9219V28.6797H52.2344C52.8672 28.6797 53.2969 28.3125 53.2969 27.7031C53.2969 27.0938 52.875 26.7266 52.2344 26.7266H45.2109C44.5625 26.7266 44.1406 27.0938 44.1406 27.7031C44.1406 28.3125 44.5703 28.6797 45.2109 28.6797H47.5391V36.9219C47.5391 37.6953 47.9766 38.1484 48.7188 38.1484ZM55.8047 38H59.6172C62.0234 38 63.5156 36.7578 63.5156 34.7734C63.5156 33.2812 62.3906 32.1641 60.8594 32.0469V31.9844C62.0547 31.8047 62.9766 30.7734 62.9766 29.5391C62.9766 27.8125 61.6484 26.7266 59.5312 26.7266H55.8047C55.0625 26.7266 54.625 27.1797 54.625 27.9531V36.7656C54.625 37.5469 55.0625 38 55.8047 38ZM56.9844 31.4141V28.4844H58.9219C60.0234 28.4844 60.6562 29 60.6562 29.9062C60.6562 30.8594 59.9375 31.4141 58.6797 31.4141H56.9844ZM56.9844 36.2422V32.9688H58.9609C60.3516 32.9688 61.1094 33.5312 61.1094 34.5859C61.1094 35.6641 60.375 36.2422 59.0156 36.2422H56.9844Z" fill="white"/>
</g>
<defs>
<clipPath id="clip0">
<rect width="95.8316" height="75.3959" fill="white"/>
</clipPath>
</defs>
</svg>
