<svg width="19" height="14" viewBox="0 0 19 14" fill="none" xmlns="http://www.w3.org/2000/svg">
<path d="M0 8.45479C0 9.88804 0.477124 11.5602 0.954248 13.2323C0.954248 13.4712 0.954248 13.4712 0.954248 13.7101L7.63399 8.45479C7.63399 8.21591 7.63399 8.21591 7.63399 7.97703C7.15686 6.3049 6.9183 4.63277 6.67974 3.19952C6.67974 2.00514 6.9183 0.81076 7.39543 0.333008L0.715686 5.58827C-1.42194e-07 6.06603 0 7.02153 0 8.45479Z" fill="#DEC37F"/>
<path d="M4.29397 5.82673C5.72534 6.30449 7.39528 7.25999 8.82665 7.97662C10.0195 8.45437 10.9737 8.93212 11.928 9.40987L18.6077 4.1546C17.6534 3.67685 16.4606 3.1991 15.5064 2.72135C13.8365 2.00472 12.4051 1.04921 10.9737 0.571462C9.54234 0.0937099 8.34953 -0.145163 7.63384 0.0937127L0.954102 5.34898C1.66979 5.11011 2.8626 5.34898 4.29397 5.82673Z" fill="#FFF7A7"/>
</svg>
