<svg width="22" height="19" viewBox="0 0 22 19" fill="none" xmlns="http://www.w3.org/2000/svg">
<path d="M21.7254 11.917C21.145 11.5341 20.2762 11.5885 19.3111 11.7886C18.3461 11.9887 17.1887 12.4803 15.8863 12.8762C14.7289 13.3678 13.5716 13.8594 12.4614 13.9638C11.9789 14.0639 11.4964 14.1639 11.1101 14.1182C10.8688 14.1682 10.7237 14.0725 10.5786 13.9768C10.4335 13.881 10.4335 13.881 10.2884 13.7853C10.2884 13.7853 10.2884 13.7853 10.1433 13.6896L9.99823 13.5939C6.90235 11.3421 3.80646 9.0903 0.614406 6.98428L0.7595 7.08L0.904594 7.17573C1.04969 7.27146 1.04969 7.27146 1.19478 7.36719C1.33987 7.46292 1.58113 7.41289 1.72622 7.50862C2.11258 7.55432 2.59509 7.45427 3.07761 7.35422C4.04264 7.15411 5.20001 6.66249 6.50246 6.2666C7.65983 5.77498 8.81719 5.28337 9.92732 5.17899C10.8923 4.97888 11.7612 4.92453 12.3416 5.30744C15.5336 7.41347 18.6295 9.66524 21.7254 11.917Z" fill="#FFC086"/>
</svg>
