<svg width="17" height="17" viewBox="0 0 17 17" fill="none" xmlns="http://www.w3.org/2000/svg">
<path d="M16.8516 6.50953C16.3202 6.3681 15.6453 6.75966 14.8743 7.29698C14.0072 7.98006 13.1889 8.90462 12.3707 9.82917C11.5524 10.7537 10.7342 11.6783 9.96315 12.2156C9.52956 12.5571 9.19213 12.7529 8.95087 12.803C8.85471 12.9487 8.61345 12.9987 8.46836 12.903C8.46836 12.903 8.32326 12.8073 8.2271 12.953C8.2271 12.953 8.2271 12.953 8.08201 12.8573L7.93691 12.7616C5.52095 12.0044 2.81479 11.0558 0.253734 10.2029C0.253734 10.2029 0.253733 10.2029 0.398827 10.2986C0.398827 10.2986 0.398827 10.2986 0.54392 10.3943C0.54392 10.3943 0.689013 10.4901 0.785178 10.3443C0.930272 10.44 1.02644 10.2943 1.2677 10.2442C1.46003 9.95273 1.79745 9.75695 2.23104 9.41541C3.00205 8.87809 3.8203 7.95353 4.73471 6.88322C5.55296 5.95866 6.37121 5.0341 7.23839 4.35103C8.0094 3.81371 8.68425 3.42215 9.21569 3.56358C11.6806 4.56224 14.2906 5.65662 16.8516 6.50953Z" fill="#FFC086"/>
</svg>
