<svg width="11" height="10" viewBox="0 0 11 10" fill="none" xmlns="http://www.w3.org/2000/svg">
<path d="M9.3876 6.72077C9.09742 6.52931 8.71106 6.48361 8.22855 6.58366C7.74603 6.68372 7.02226 6.8338 6.44357 7.07961C5.7198 7.22969 5.14112 7.4755 4.6586 7.57555C4.41734 7.62558 4.17608 7.6756 4.03099 7.57988L3.8859 7.48415C3.8859 7.48415 3.8859 7.48415 3.7408 7.38842C2.77239 6.33108 1.75504 5.03226 0.786625 3.97492C0.786625 3.97492 0.786625 3.97492 0.931719 4.07065L1.07681 4.16638C1.22191 4.26211 1.46316 4.21208 1.70442 4.16205C2.18694 4.062 2.91072 3.91192 3.4894 3.66611C4.21317 3.51603 4.79185 3.27022 5.27437 3.17017C5.75689 3.07011 6.14324 3.11582 6.43342 3.30727C7.40184 4.36461 8.37026 5.42195 9.3876 6.72077Z" fill="white"/>
</svg>
