<svg width="25" height="24" viewBox="0 0 25 24" fill="none" xmlns="http://www.w3.org/2000/svg">
<path d="M23.0867 12.9802C22.7522 12.7079 21.7431 12.8091 20.1709 13.3745C18.5987 13.9398 16.6439 14.7474 14.5777 15.4642C12.623 16.2718 10.6683 17.0793 9.18639 17.5337C8.4906 17.7054 7.79481 17.8771 7.39117 17.9176C7.18935 17.9378 6.98754 17.9581 6.87605 17.8673C6.76456 17.7766 6.76456 17.7766 6.76456 17.7766C6.76456 17.7766 6.76456 17.7766 6.65307 17.6859C6.65307 17.6859 6.74341 17.5749 6.54159 17.5951C4.98646 15.4068 3.31984 13.1278 1.7647 10.9395C1.85504 10.8285 1.7647 10.9395 1.87619 11.0303C1.87619 11.0303 1.87619 11.0303 1.98768 11.121L2.09917 11.2117C2.21066 11.3025 2.41247 11.2823 2.61429 11.262C3.01793 11.2215 3.71372 11.0498 4.40951 10.8781C5.89141 10.4238 7.84613 9.6162 9.91234 8.89938C11.8671 8.09182 13.8218 7.28425 15.5055 6.80964C16.8548 6.06279 17.9753 6.05234 18.3098 6.32457C19.9764 8.60359 21.5316 10.7919 23.0867 12.9802Z" fill="#FFE9B0"/>
</svg>
