<svg width="24" height="25" viewBox="0 0 24 25" fill="none" xmlns="http://www.w3.org/2000/svg">
<path d="M11.608 2.11908C11.3705 2.47904 11.5719 3.473 12.2913 4.98097C13.0108 6.48894 14.0094 8.35331 14.9288 10.3377C15.9274 12.202 16.926 14.0664 17.526 15.4956C17.7663 16.1707 18.0065 16.8459 18.0871 17.2435C18.1274 17.4423 18.1677 17.6411 18.0885 17.7611C18.0093 17.8811 18.0093 17.8811 18.0093 17.8811C18.0093 17.8811 18.0093 17.8811 17.9302 18.0011C17.9302 18.0011 17.8107 17.9222 17.851 18.121C15.8288 19.8868 13.7275 21.7725 11.7053 23.5383C11.5859 23.4595 11.7053 23.5383 11.7845 23.4183C11.7845 23.4183 11.7845 23.4183 11.8637 23.2983L11.9428 23.1783C12.022 23.0583 11.9817 22.8595 11.9414 22.6607C11.8609 22.2632 11.6206 21.588 11.3803 20.9128C10.7803 19.4836 9.78174 17.6193 8.8623 15.6349C7.8637 13.7705 6.8651 11.9062 6.22482 10.2782C5.34706 9.01021 5.22483 7.89627 5.46232 7.53631C7.56365 5.65057 9.58581 3.88483 11.608 2.11908Z" fill="#FFE9B0"/>
</svg>
