<svg width="10" height="14" viewBox="0 0 10 14" fill="none" xmlns="http://www.w3.org/2000/svg">
<path d="M8.55691 1.56564C8.17249 1.62542 7.95859 2.29035 7.91019 3.00851C7.86179 3.72666 7.70645 4.77729 7.60458 5.66168C7.5027 6.54607 7.56631 7.48369 7.29896 8.31485C7.19202 8.64732 7.08508 8.97978 7.03161 9.14601C6.97814 9.31225 6.97813 9.31224 6.75918 9.42525C6.75918 9.42525 6.75919 9.42525 6.70572 9.59148C6.70572 9.59148 6.54024 9.53825 6.70572 9.59148C4.84213 10.2761 2.7596 11.0737 0.896005 11.7582C0.896005 11.7582 0.896006 11.7582 0.949477 11.592C1.00295 11.4258 1.00294 11.4258 1.22189 11.3128C1.27536 11.1465 1.3823 10.8141 1.48924 10.4816C1.70312 9.81667 1.63951 8.87905 1.79486 7.82843C1.89673 6.94404 1.83313 6.00643 2.10048 5.17526C2.14888 4.4571 2.47477 4.01163 2.74719 3.73239C4.66425 2.88158 6.52784 2.197 8.55691 1.56564Z" fill="white"/>
</svg>
