<svg width="12" height="14" viewBox="0 0 12 14" fill="none" xmlns="http://www.w3.org/2000/svg">
<path d="M11.2558 3.11461C10.8695 3.0689 10.4848 3.65192 10.2453 4.33067C10.0057 5.00942 9.5738 5.97968 9.23806 6.80419C8.90233 7.62869 8.7117 8.54893 8.23087 9.27771C8.03854 9.56922 7.84621 9.86073 7.75005 10.0065C7.65388 10.1522 7.65387 10.1522 7.41261 10.2023C7.41261 10.2023 7.41261 10.2023 7.31645 10.348C7.31645 10.348 7.17136 10.2523 7.31645 10.348C5.33745 10.5067 3.1172 10.7155 1.13821 10.8742C1.13821 10.8742 1.13821 10.8742 1.23438 10.7285C1.33054 10.5827 1.33054 10.5827 1.57179 10.5327C1.66796 10.3869 1.86029 10.0954 2.05262 9.80392C2.43728 9.2209 2.62791 8.30067 3.05981 7.33041C3.39554 6.5059 3.58619 5.58567 4.06702 4.8569C4.30658 4.17815 4.74017 3.83661 5.07759 3.64082C7.15276 3.33634 9.13176 3.17761 11.2558 3.11461Z" fill="white"/>
</svg>
