<svg width="20" height="18" viewBox="0 0 20 18" fill="none" xmlns="http://www.w3.org/2000/svg">
<path d="M13.838 17.2124C14.0287 16.2922 13.5917 15.3763 12.8645 14.2689C12.1374 13.1615 11.0728 12.25 9.95927 11.0969C8.84577 9.94383 7.63609 8.93652 6.66767 7.87918C5.84435 6.91757 5.26229 5.90594 5.30783 4.88997C5.54571 3.5825 5.73466 2.03355 5.97253 0.726074C6.02315 1.59628 6.60522 2.60792 7.33238 3.71528C8.30079 4.77262 9.4143 5.92568 10.624 6.93299C11.7375 8.08606 12.8021 8.99764 13.5292 10.105C14.2075 10.9709 14.5483 12.0326 14.5027 13.0485C14.2648 14.356 14.027 15.6635 13.838 17.2124Z" fill="#FFC02E"/>
</svg>
