<svg width="9" height="17" viewBox="0 0 9 17" fill="none" xmlns="http://www.w3.org/2000/svg">
<path d="M7.01711 0C6.53999 0.238876 6.53999 1.19438 6.77855 2.14989C7.01711 3.10539 7.25567 4.53865 7.49423 5.73303C7.7328 6.92741 8.20992 8.12179 8.20992 9.31617C8.20992 9.79392 8.20992 10.2717 8.20992 10.5106C8.20992 10.7494 8.20992 10.7494 7.97136 10.9883C7.97136 10.9883 7.97136 10.9883 7.97136 11.2272C7.97136 11.2272 7.7328 11.2272 7.97136 11.2272C5.8243 12.8993 3.43868 14.8103 1.29162 16.4825C1.29162 16.4825 1.29162 16.4824 1.29162 16.2436C1.29162 16.0047 1.29163 16.0047 1.53019 15.7658C1.53019 15.527 1.53019 15.0492 1.53019 14.5714C1.53019 13.6159 1.05307 12.4216 0.814504 10.9883C0.575942 9.79392 0.0988154 8.59954 0.0988154 7.40516C-0.139747 6.44966 0.0988163 5.73303 0.337378 5.25528C2.48444 3.58314 4.63149 1.91101 7.01711 0Z" fill="#F0E791"/>
</svg>
