<svg width="73" height="102" viewBox="0 0 73 102" fill="none" xmlns="http://www.w3.org/2000/svg">
<g clip-path="url(#clip0)">
<path d="M15.2679 11.9438C14.5523 12.1827 14.0751 13.1382 13.598 14.3326C13.3594 15.7659 12.8823 17.438 12.6438 19.1101C12.4052 20.7823 11.9281 22.4544 11.6895 23.8876C11.4509 24.6043 11.2124 25.082 10.9738 25.3209C10.7353 25.5598 10.7353 25.5598 10.4967 25.7986C10.4967 25.7986 10.2581 25.7986 10.2581 26.0375C10.2581 26.0375 10.0196 26.0375 10.2581 26.0375C6.91827 26.5153 3.57839 27.2319 0.238525 27.7097C0.238525 27.4708 0.238525 27.7097 0.238525 27.7097C0.238525 27.7097 0.477087 27.7097 0.477087 27.4708C0.71565 27.4708 0.71565 27.2319 0.954212 26.993C1.19277 26.5153 1.43134 26.0375 1.6699 25.5598C2.14702 24.3654 2.38558 22.4544 2.62415 20.7823C2.86271 19.1101 3.33983 17.438 3.57839 16.0047C4.05552 14.8104 4.53264 13.8549 5.00977 13.616C8.5882 13.1382 11.9281 12.6605 15.2679 11.9438Z" fill="#C82320"/>
<path d="M67.9902 39.8922C69.6601 38.6979 70.3758 37.0257 71.0915 35.3536C71.0915 35.3536 71.0915 35.1147 71.0915 34.8759V34.637C71.0915 34.3981 71.0915 34.3981 71.0915 34.1592C71.0915 33.9203 71.0915 33.6815 71.0915 33.4426C71.0915 33.2037 71.0915 33.2037 71.0915 32.9648C70.1372 34.1592 68.9444 35.1147 67.5131 35.8314C66.7974 36.3091 66.0817 36.548 65.1274 36.7869C66.3203 37.9812 67.0359 38.9367 67.9902 39.8922C67.7516 40.1311 67.9902 39.8922 67.9902 39.8922Z" fill="#ED523D"/>
<path d="M60.1176 1.6718C59.8791 1.6718 59.4019 1.43293 59.1634 1.43293C56.5392 0.716301 53.4379 -0.478078 50.8137 0.23855C50.098 0.477425 49.3823 0.955177 48.9052 1.6718C48.9052 1.91068 48.9052 1.91068 48.9052 2.14956C48.9052 2.38843 49.1438 2.86618 49.1438 3.10506C49.6209 3.82169 50.3366 4.53832 50.8137 5.25494C50.8137 5.25494 51.0523 5.25494 51.0523 5.49382C52.0065 5.73269 53.1993 5.97157 53.915 5.97157C55.3464 6.21045 56.7778 6.6882 58.2091 7.16595L60.1176 1.6718Z" fill="#ED523D"/>
<path d="M73 27.4711C72.7614 26.2767 72.2843 25.0823 71.8072 23.8879C70.3758 21.4992 67.9902 19.1104 65.8431 17.1994C63.219 14.8106 60.5948 12.8996 57.732 10.7498C55.585 9.07762 53.1993 7.40549 51.2908 5.49448C51.2908 5.49448 51.0523 5.49448 51.0523 5.25561C50.3366 4.53898 49.6209 3.82235 49.3824 3.10572C49.1438 2.86685 49.1438 2.62797 49.1438 2.15022C49.1438 1.91135 49.1438 1.67247 49.1438 1.43359C48.9052 1.67247 47.2353 5.97224 47.2353 7.16661C47.2353 7.40549 47.2353 7.64437 47.2353 7.88324C47.7124 9.55537 49.8595 11.2275 51.0523 12.4219C56.0621 16.7216 61.7876 20.3048 66.3203 24.8434C68.2288 26.7544 70.1373 29.1432 70.8529 31.7708C70.8529 32.2486 71.0915 32.4875 71.0915 32.9652C71.0915 33.2041 71.0915 33.2041 71.0915 33.443C71.0915 33.6818 71.0915 33.9207 71.0915 34.1596C71.0915 34.3985 71.0915 34.3985 71.0915 34.6373V34.8762C71.0915 35.1151 71.0915 35.1151 71.0915 35.354C71.3301 34.8762 71.5686 34.3985 71.5686 33.6818C71.5686 33.443 71.8072 33.2041 71.8072 32.9652C72.5229 31.2931 73.2386 29.3821 73 27.4711Z" fill="#C82320"/>
<path d="M68.9445 54.9412C68.9445 54.7023 68.9445 54.4634 68.9445 54.2245C68.9445 53.9857 68.9445 53.5079 68.9445 53.269C68.7059 53.5079 68.4674 53.7468 68.2288 53.9857C66.3203 55.8967 63.9347 57.0911 61.5491 57.8077C58.4478 58.7632 55.3464 59.4798 52.2451 59.9576C45.0883 60.9131 37.6928 61.3908 30.536 62.8241C24.3334 64.0185 17.6536 65.9295 13.1209 70.707C11.9281 71.9014 10.9739 73.5735 10.2582 75.2456C10.0196 75.7234 9.78108 76.2011 9.54252 77.3955C9.54252 77.6344 9.54252 77.6344 9.54252 77.8733C9.54252 78.1121 9.54252 78.351 9.30396 78.5899C9.30396 78.8288 9.30396 79.0676 9.30396 79.3065C9.78108 78.5899 10.0196 77.8733 10.4968 77.3955C11.451 76.2011 12.4053 75.2456 13.5981 74.2901C18.8464 70.2292 26.0033 68.796 32.4445 67.8405C39.6013 66.885 46.7582 66.4072 53.9151 65.2128C58.9249 64.2573 65.1275 62.8241 67.9902 58.0466C68.2288 57.5688 68.4674 57.0911 68.7059 56.6133C68.7059 56.3744 68.9445 56.1356 68.9445 55.8967C68.9445 55.4189 68.9445 55.1801 68.9445 54.9412Z" fill="#ED523D"/>
<path d="M37.4543 99.3728C37.6929 98.6562 37.9314 98.1784 38.17 97.4618C38.4086 96.7452 38.6471 96.2674 38.8857 95.5508L39.1242 94.8342C29.8203 97.9396 17.6537 97.9396 11.6896 89.1012C9.54254 86.2347 8.82685 82.6515 9.30398 79.0684C9.30398 78.8295 9.30398 78.5906 9.30398 78.3518C9.30398 78.1129 9.30398 77.874 9.54254 77.6351C9.54254 77.3963 9.7811 76.9185 10.0197 75.7241C10.0197 75.7241 9.7811 76.4408 8.34973 80.9794V81.2183C8.11117 81.9349 7.87261 82.6515 7.63404 83.3681C6.91836 87.1902 7.63404 91.0122 9.7811 94.3564C15.7452 103.434 28.1504 103.195 37.2157 100.328L37.4543 99.3728Z" fill="#C82320"/>
<path d="M70.3758 51.1195C70.3758 50.8806 70.3758 50.8806 70.6144 50.6417C71.0915 48.7307 70.853 47.0586 70.3758 45.1476C69.8987 43.4754 68.9445 41.8033 67.9902 40.1312C67.2745 38.9368 66.5589 37.9813 65.6046 37.0258C64.1732 35.3537 62.5033 33.9204 60.8334 32.726C56.7778 29.6206 51.5294 27.2319 46.2811 26.7541C44.6111 26.5153 42.7026 26.7541 41.5098 27.7096C40.7941 28.1874 40.5556 28.6651 40.5556 29.1429V29.3818C40.317 30.0984 40.0785 30.815 39.8399 31.5316C39.6013 32.2483 39.3628 33.2038 39.1242 34.1593C39.3628 33.9204 39.6013 33.4427 39.8399 33.2038C40.317 32.726 40.7941 32.4871 41.2713 32.2483C42.2255 32.0094 43.4183 32.0094 44.6111 32.0094C49.8595 32.2483 54.8693 34.637 59.1634 37.7424C59.402 37.9813 59.402 37.9813 59.6406 38.2202C61.3105 39.4145 62.7419 40.8478 64.1732 42.2811C66.3203 44.6698 67.7517 47.2975 68.9445 50.164C69.183 51.1195 69.4216 52.075 69.6602 53.0305V53.2693C69.6602 53.5082 69.6602 53.986 69.6602 54.2249C69.6602 54.4637 69.6602 54.7026 69.6602 54.9415C69.6602 55.1804 69.6602 55.4192 69.6602 55.4192C69.4216 53.986 69.8987 52.5527 70.3758 51.1195Z" fill="#C82320"/>
<path d="M52.7222 38.2203C48.6667 37.7426 43.1797 36.0704 40.7941 32.4873C40.317 32.7262 39.8399 32.9651 39.3628 33.4428C39.1242 33.6817 38.8856 33.9206 38.6471 34.3983L38.4085 35.3538C37.6928 39.4147 42.9412 42.0423 45.8039 42.9978C50.8137 44.67 56.3007 44.4311 61.3105 43.2367C62.0261 42.9978 62.7418 42.9978 63.219 42.759C61.7876 41.3257 60.3562 39.8925 58.6863 38.6981C57.0163 38.4592 54.8693 38.4592 52.7222 38.2203Z" fill="#ED523D"/>
</g>
<defs>
<clipPath id="clip0">
<rect width="73" height="102" fill="white"/>
</clipPath>
</defs>
</svg>
