<svg width="18" height="25" viewBox="0 0 18 25" fill="none" xmlns="http://www.w3.org/2000/svg">
<path d="M16.1493 3.62266C15.4568 2.50496 14.5394 1.39085 13.3972 0.280307C13.3972 0.280307 13.3936 0.0546206 13.1687 0.0581986L10.357 7.10097C10.357 7.10097 10.3606 7.32665 10.5854 7.32308C11.7276 8.43361 12.645 9.54773 13.3375 10.6654C14.0264 11.5574 14.2657 12.4566 14.0516 13.1372L16.8633 6.09447C17.0774 5.41383 16.6133 4.51825 16.1493 3.62266Z" fill="#FDC283"/>
<path d="M8.49979 17.5146C8.03931 16.8447 7.58242 16.4005 7.12554 15.9563C5.98332 14.8458 4.8411 13.7352 4.14859 12.6175C3.45608 11.4998 2.76716 10.6078 2.98124 9.92718L0.169489 16.9699C0.180263 17.647 0.647923 18.7683 1.33684 19.6603C2.25421 20.7744 3.17157 21.8885 4.31379 22.9991C4.77067 23.4433 5.23115 24.1132 5.68804 24.5574L8.49979 17.5146Z" fill="#FDC283"/>
<path d="M0.161599 16.5188C0.375679 15.8381 1.2679 15.3725 2.38857 15.1289C3.50924 14.8853 5.07961 14.6346 6.65358 14.6095C8.22754 14.5845 9.79791 14.3337 11.147 14.3123C12.4925 14.0651 13.3884 13.8251 13.8273 13.1409C14.259 12.0053 16.2073 7.23373 16.639 6.09814C16.1965 6.55667 15.0794 7.02593 13.9588 7.26951C12.6133 7.51666 11.0393 7.54171 9.46532 7.56675C7.89136 7.5918 6.32099 7.84253 5.20032 8.08611C4.07965 8.32968 3.18743 8.79537 2.97335 9.476C2.5416 10.6116 0.59694 15.6089 0.161599 16.5188Z" fill="#FF9853"/>
</svg>
