<svg width="79" height="94" viewBox="0 0 79 94" fill="none" xmlns="http://www.w3.org/2000/svg">
<path d="M74.9371 77.8086C74.9371 78.0335 74.9371 78.0335 74.9371 77.8086C72.0028 81.8564 67.7143 84.555 63.4257 86.5789C62.2971 87.0287 61.1685 87.4785 60.2657 87.9282C58.6857 88.378 57.1057 88.8277 55.5257 89.2775C49.2057 90.4019 42.8857 89.7273 37.2428 86.1292C36.7914 85.6794 36.1143 85.4545 35.6628 85.0048C35.2114 84.7799 34.76 84.3301 34.3085 83.8804C34.0828 83.6555 33.8571 83.4306 33.8571 83.4306C34.9857 84.555 35.8885 85.4545 37.0171 86.5789C38.1457 87.7033 39.5 88.8277 40.8543 89.7273C45.5943 92.8756 51.0114 94 56.4285 93.7751C57.5571 93.7751 58.6857 93.5502 59.8143 93.3253C62.2971 92.8756 64.5543 92.2009 67.0371 91.0765C71.3257 89.0526 75.84 86.3541 78.7743 82.5311C78.7743 82.3062 79 82.3062 79 82.0813C77.6457 80.732 76.5171 79.1579 74.9371 77.8086Z" fill="#FFC02E"/>
<path d="M33.8571 83.6555C32.0514 82.0814 30.6971 80.2823 29.3428 78.2584C27.0857 74.8852 25.7314 71.0622 25.0543 67.2393C26.4085 67.4641 27.7628 67.4641 28.8914 67.4641C28.8914 71.0622 29.7943 74.6603 31.1485 77.8086C32.0514 80.0574 33.4057 82.3062 34.9857 84.3302C35.2114 84.555 35.4371 84.7799 35.6628 85.2297C35.2114 85.0048 34.76 84.555 34.3085 84.1053C34.0828 83.8804 33.8571 83.6555 33.8571 83.6555Z" fill="#FFDF87"/>
<path d="M9.93147 58.0193C7.44861 55.3207 5.86861 51.4978 6.09432 47.8997C6.32004 44.7514 7.44861 41.603 8.57718 38.9045C11.5115 31.7083 15.3486 25.1868 18.7343 18.2155C20.0886 15.292 21.4429 12.3686 22.12 9.22026C22.3458 7.87098 22.7972 6.29682 22.3458 4.72266C22.5715 4.72266 23.0229 4.72266 23.2486 4.94754C23.4743 4.94754 23.7 5.17242 23.9258 5.17242C24.1515 5.17242 24.3772 5.3973 24.6029 5.3973L24.8286 5.62218C25.0543 5.84706 25.28 6.07194 25.5058 6.29682L25.7315 6.5217C25.7315 6.5217 25.7315 6.74658 25.9572 6.74658C27.0858 8.54562 26.86 10.7944 26.4086 12.8184C25.7315 15.9667 24.3772 18.8901 23.0229 21.5887C21.4429 24.9619 19.6372 28.3351 17.8315 31.7083C16.0258 35.0815 14.4458 38.4547 12.8658 42.0528C11.7372 44.9762 10.6086 48.1246 10.1572 51.2729C9.70575 54.4212 10.8343 57.5695 12.64 60.2681C12.1886 60.0432 11.9629 59.8184 11.5115 59.5935C11.2858 59.3686 11.06 59.1437 10.8343 58.9188C10.8343 58.694 10.3829 58.4691 9.93147 58.0193Z" fill="#FFDF87"/>
<path d="M50.56 34.6315C50.56 34.8564 50.7857 34.8564 50.7857 35.0813C51.0114 35.3062 51.2372 35.531 51.2372 35.9808C51.2372 36.2057 51.4629 36.2057 51.4629 36.4306C51.0114 36.2057 50.3343 35.9808 49.8829 35.9808C47.8514 35.531 45.5943 36.6554 44.0143 37.7798C41.3057 39.354 39.0486 41.8277 37.2429 44.0765C32.9543 49.4736 30.02 55.9952 29.1172 62.7416C27.5372 63.1913 26.1829 63.1913 24.6029 63.4162C24.3772 56.22 26.86 49.0239 30.9229 43.177C32.7286 40.2535 34.9857 37.7798 37.4686 35.531C39.2743 33.9569 41.5314 32.3827 44.0143 31.9329C46.4972 31.4832 48.5286 32.8325 50.3343 34.1818L50.56 34.4066C50.56 34.6315 50.56 34.6315 50.56 34.6315Z" fill="#FFDF87"/>
<path d="M11.2857 59.1439C11.5114 59.3687 11.7371 59.5936 11.9628 59.8185C12.1886 60.0434 12.64 60.2683 13.0914 60.4931L13.3171 60.718C14.4457 61.3927 15.3486 61.8424 16.4771 62.2922C18.7343 63.1917 21.2171 63.4166 23.4743 63.4166C23.7 63.4166 24.1514 63.4166 24.3771 63.4166C25.9571 63.4166 27.5371 63.1917 28.8914 62.7419C32.2771 61.8424 35.4371 60.4931 38.5971 58.4692C43.1114 55.7707 47.1743 52.1726 49.8828 47.675C51.6886 44.7515 52.8171 41.1534 51.9143 37.7802C51.9143 37.3305 51.6886 36.8807 51.4628 36.4309C51.4628 36.2061 51.2371 36.2061 51.2371 35.9812C51.0114 35.7563 51.0114 35.3065 50.7857 35.0817C50.7857 34.8568 50.56 34.8568 50.56 34.6319L50.3343 34.407L50.1086 34.1821C50.56 34.6319 51.0114 34.8568 51.4628 35.3065C51.6886 35.5314 51.9143 35.7563 52.14 35.9812C53.4943 37.3305 55.0743 38.6797 55.9771 40.4788C56.6543 41.8281 56.88 43.4022 56.6543 44.7515C56.4286 48.5745 54.3971 52.3974 51.9143 55.3209C48.3028 59.5936 43.3371 63.1917 38.1457 65.4405C35.2114 66.7898 32.0514 67.4644 28.6657 67.4644C27.3114 67.4644 25.9571 67.4644 24.8286 67.2396C24.3771 67.2396 23.9257 67.0147 23.4743 67.0147C20.0886 66.34 17.1543 64.541 14.6714 62.5171C14.6714 62.5171 14.6714 62.5171 14.4457 62.5171C14.22 62.0673 13.0914 60.9429 11.2857 59.1439Z" fill="#FFC02E"/>
<path d="M21.2171 2.0236C20.9914 1.79872 20.7657 1.57384 20.54 1.57384C19.8629 0.899197 18.96 0.674316 18.0571 0.674316C15.8 0.674316 13.5429 2.0236 11.7371 3.148C9.02857 5.17192 6.54571 7.19585 4.28857 9.44465C2.70857 10.7939 1.35429 12.1432 0 13.4925L4.28857 17.5403C7.44857 14.392 10.6086 11.4686 13.9943 8.77001C16.0257 7.19585 18.2829 5.62169 20.7657 4.94704C21.4429 4.94704 22.12 4.72216 22.5714 4.72216C22.7971 4.72216 23.2486 4.72216 23.4743 4.94704C23.7 4.94704 23.9257 5.17192 24.1514 5.17192C24.3771 5.17192 24.6029 5.3968 24.8286 5.3968L25.0543 5.62169L25.28 5.84657L21.2171 2.0236Z" fill="#FFC02E"/>
</svg>
