<svg width="17" height="9" viewBox="0 0 17 9" fill="none" xmlns="http://www.w3.org/2000/svg">
<path d="M0.982788 1.53651C1.43422 1.98627 2.11136 1.98627 3.01422 1.76139C3.91707 1.53651 5.27136 1.31163 6.39993 1.08675C7.5285 0.861869 8.65707 0.412109 9.78565 0.412109C10.2371 0.412109 10.6885 0.412109 10.9142 0.412109C11.1399 0.412109 11.1399 0.412106 11.3656 0.636986C11.3656 0.636986 11.3656 0.636986 11.5914 0.636986C11.5914 0.636986 11.5914 0.861867 11.5914 0.636986C13.1714 2.66091 14.9771 4.90971 16.5571 6.93364C16.5571 6.93364 16.5571 6.93364 16.3314 6.93364C16.1056 6.93364 16.1056 6.93364 15.8799 6.70876C15.6542 6.70876 15.2028 6.70876 14.7514 6.70876C13.8485 6.70876 12.7199 7.15852 11.3656 7.3834C10.2371 7.60828 9.1085 8.05804 7.97993 8.05804C7.07708 8.28292 6.39993 8.05805 5.9485 7.83317C4.3685 5.80924 2.56279 3.56044 0.982788 1.53651Z" fill="#F5D79C"/>
</svg>
