<svg width="16" height="15" viewBox="0 0 16 15" fill="none" xmlns="http://www.w3.org/2000/svg">
<path d="M2.10165 4.17683C2.15057 4.41832 2.82711 4.65547 3.89 4.93833C4.95289 5.22119 6.3532 5.30827 7.75352 5.39535C9.15383 5.48242 10.458 5.71526 11.617 5.85236C12.1485 5.99379 12.5348 6.0395 12.825 6.23096C12.9701 6.32669 13.1152 6.42241 13.1152 6.42241L13.2603 6.51814C13.2603 6.51814 13.1641 6.66389 13.2603 6.51814C13.3126 8.01707 13.51 9.61173 13.5623 11.1107C13.5623 11.1107 13.5623 11.1107 13.4172 11.0149C13.2721 10.9192 13.2721 10.9192 13.127 10.8235C12.8369 10.632 12.4505 10.5863 11.9191 10.4449C10.8562 10.162 9.45586 10.0749 8.05555 9.98787C6.65523 9.90079 5.20599 9.57223 4.19203 9.53086C3.27423 9.34373 2.59769 9.10656 2.40367 8.76935C2.44752 7.12467 2.29905 5.77149 2.10165 4.17683Z" fill="#FFE9B0"/>
</svg>
