<svg width="28" height="28" viewBox="0 0 28 28" fill="none" xmlns="http://www.w3.org/2000/svg">
<path d="M17.5453 27.6679C17.657 26.7529 17.16 25.7659 16.3587 24.7429C15.5574 23.7199 14.4517 22.6608 13.2704 21.7166C12.1648 20.6576 11.0592 19.5986 10.3721 18.651C9.99076 18.2346 9.68512 17.7034 9.49376 17.2476C9.45522 17.0574 9.3024 16.7918 9.33961 16.4868C9.30107 16.2966 9.30107 16.2966 9.26253 16.1064C9.26253 16.1064 9.33828 15.9916 9.22399 15.9162C9.22399 15.9162 9.29974 15.8014 9.18546 15.726C9.78075 10.8459 10.2618 5.89041 10.9328 0.895508C11.0471 0.970908 10.8571 1.01031 10.9713 1.08571C10.9713 1.08571 10.8956 1.20051 11.0099 1.27591C10.9341 1.39072 11.0484 1.46612 11.087 1.65632C11.1255 1.84652 11.164 2.03673 11.3168 2.30233C11.5082 2.75813 11.8138 3.28934 12.1952 3.70574C12.9965 4.72875 14.1021 5.78775 15.0935 6.77136C16.1991 7.83036 17.3804 8.77456 18.1817 9.79757C18.8688 10.7452 19.3658 11.7322 19.3684 12.7226C18.7359 17.9077 18.1406 22.7878 17.5453 27.6679Z" fill="#FAEA96"/>
</svg>
