<svg width="41" height="39" viewBox="0 0 41 39" fill="none" xmlns="http://www.w3.org/2000/svg">
<path d="M22.3204 34.7048C24.0109 34.9833 26.135 34.9203 28.2591 34.8573C28.4042 34.9531 28.5004 34.8073 28.5004 34.8073L24.1306 25.6482L23.8894 25.6983C21.7653 25.7613 19.6412 25.8243 17.9507 25.5457C16.4053 25.3629 15.2935 24.8386 14.8565 23.9227L19.2262 33.0818C19.6632 33.9977 20.775 34.522 22.3204 34.7048Z" fill="#FFDF87"/>
<path d="M15.4586 14.4877C16.3275 14.4334 17.3414 14.4748 18.3554 14.5161C20.4795 14.4531 22.7487 14.4859 24.5353 14.6186C26.322 14.7514 27.7712 15.08 28.3044 15.8501L23.9347 6.69105C23.1603 5.97092 21.711 5.64236 20.1656 5.45956C18.3789 5.32678 16.1098 5.29405 13.9857 5.35706C12.9717 5.31568 12.1028 5.37003 11.0889 5.32866L15.4586 14.4877Z" fill="#FFDF87"/>
<path d="M23.9348 6.69092C24.3718 7.60683 23.9888 8.81857 23.2684 10.2261C22.4519 11.7794 21.1528 13.4327 19.8537 15.086C18.5546 16.7394 17.1594 18.5385 16.1016 20.1418C15.1399 21.5993 14.5157 22.8611 14.6153 23.9728C15.2462 25.2259 18.4501 31.733 18.985 33.1319C18.7893 32.1659 19.5096 30.7584 20.4713 29.3009C21.5291 27.6976 22.8282 26.0442 24.2234 24.2451C25.5225 22.5918 26.8216 20.9385 27.6381 19.3852C28.3585 17.9776 28.7415 16.7659 28.3045 15.85C27.6735 14.5969 24.6147 8.18552 23.9348 6.69092Z" fill="#FFC02E"/>
</svg>
