<svg viewBox="0 0 21 70" fill="none" xmlns="http://www.w3.org/2000/svg">
<rect x="1" y="36.7942" width="19.3262" height="32.7059" rx="9.6631" stroke="#020202"/>
<line x1="10.4197" y1="54.3904" x2="10.4197" y2="62.3102" stroke="#020202" stroke-linecap="round" stroke-linejoin="round"/>
<path d="M10.3095 26.3696C10.5048 26.5649 10.8214 26.5649 11.0166 26.3696L14.1986 23.1876C14.3939 22.9924 14.3939 22.6758 14.1986 22.4805C14.0034 22.2852 13.6868 22.2852 13.4915 22.4805L10.6631 25.3089L7.83466 22.4805C7.6394 22.2852 7.32281 22.2852 7.12755 22.4805C6.93229 22.6758 6.93229 22.9924 7.12755 23.1876L10.3095 26.3696ZM10.1631 4.9955e-09L10.1631 26.016L11.1631 26.016L11.1631 -4.99563e-09L10.1631 4.9955e-09Z" fill="#020202"/>
</svg>
