<svg viewBox="0 0 75 75" fill="none" xmlns="http://www.w3.org/2000/svg">
<path d="M23.0453 20.3364H17.8811C15.896 20.3364 14.8737 20.6802 14.8737 22.3245V24.2004C14.8737 25.8446 15.896 26.1884 17.8811 26.1884H19.0751C19.814 26.1884 20.1498 26.5846 20.1498 27.7206V52.2647C20.1498 54.2527 20.4931 55.2766 22.1349 55.2766H24.0602C25.7095 55.2766 26.0453 54.2527 26.0453 52.2647V22.3319C26.0453 20.6802 25.0304 20.3364 23.0453 20.3364Z" fill="white" fill-opacity="0.1"/>
<path d="M58.4328 3.29596C56.2164 1.13602 53.4403 0 50.0896 0H24.903C21.5522 0 18.7164 1.13602 16.5672 3.29596L3.23134 16.5919C1.13433 18.6921 0 21.4723 0 24.5441V50.1644C0 53.6846 1.19403 56.4126 3.57463 58.7444L16.2239 71.4126C18.7164 73.9088 21.5 75.0523 25.0746 74.9925H49.9254C53.3881 74.9925 56.2239 73.9686 58.7761 71.4126L71.4254 58.7444C73.7537 56.4126 75 53.6323 75 50.1644V24.5441C75 21.4723 73.8657 18.6921 71.7687 16.5919L58.4328 3.29596ZM70.0597 33.296C70.0597 34.148 69.6642 34.6039 68.8657 34.6039H65.0672V31.9357C65.0672 29.9477 64.7836 28.9238 63.0821 28.9238H61.3806C59.6791 28.9238 59.3955 29.9477 59.3955 31.9357V34.6039H56.7313C54.7463 34.6039 53.7239 34.8879 53.7239 36.5919V38.4081C53.7239 40.1121 54.7463 40.3961 56.7313 40.3961H59.3955V43.0643C59.3955 45.0523 59.6791 46.0762 61.3806 46.0762H63.0821C64.7836 46.0762 65.0672 45.0523 65.0672 43.0643V40.3961H68.8657C69.6045 40.3961 70 40.7922 70.0597 41.5321V50.1644C70.0597 52.2646 69.4328 53.8565 67.9627 55.2765L55.3134 67.9522C53.8358 69.432 52.194 70.1121 50.1493 70.1121H24.8433C22.7985 70.1121 21.1567 69.432 19.6791 67.9522L7.03731 55.2765C5.5597 53.7967 4.8806 52.2646 4.9403 50.1644V25.1121C4.9403 23.012 5.6194 21.1883 7.15672 19.6562L20.0224 6.59193C21.3284 5.28401 22.9701 4.88789 24.8433 4.88789H50.1493C52.0224 4.88789 53.6642 5.28401 54.9701 6.59193L67.8507 19.6562C69.3284 21.1883 70.0597 23.0045 70.0597 25.1121V33.296Z" fill="white" fill-opacity="0.1"/>
<path d="M47.7082 37.1596C50.8873 34.8278 50.9395 32.4436 50.9395 30.5154V28.5871C50.5963 22.1671 48.447 19.7231 41.0142 19.7231C33.5813 19.7231 31.4246 22.1671 31.0888 28.5871V30.5154C31.0888 32.4436 31.1485 34.8353 34.3201 37.1596C30.5216 38.6394 30.238 41.8756 30.238 46.1357C30.238 52.4436 32.447 55.5677 41.0142 55.7396C49.5813 55.5677 51.7903 52.4436 51.7903 46.1357C51.7903 41.8681 51.5067 38.632 47.7082 37.1596ZM41.0142 24.9399C44.1336 24.9399 45.3798 26.0759 45.3798 29.8801C45.3798 33.5722 44.1336 34.8203 41.0142 34.8203C37.8948 34.8203 36.6485 33.5722 36.6485 29.8801C36.6485 26.0759 37.8948 24.9399 41.0142 24.9399ZM41.0142 50.336C37.3873 50.336 36.0813 48.916 36.0813 45.336C36.0813 41.756 37.3873 40.1118 41.0142 40.1118C44.6485 40.1118 45.947 41.756 45.947 45.336C45.947 48.916 44.6485 50.336 41.0142 50.336Z" fill="white" fill-opacity="0.1"/>
</svg>
