<svg xmlns="http://www.w3.org/2000/svg" viewBox="-125.1 244 249.3 305">
<path d="M-112.3,356.1c-25.8,44.7-9.4,112.6,19.1,153.8c14.2,20.6,28.6,39.1,48.4,39.1
	c0.4,0,0.7,0,1.1,0c9.3-0.4,16-3.2,22.5-6c7.3-3.1,14.8-6.3,26.6-6.3c11.2,0,18.4,3.1,25.3,6.1c6.8,3,13.9,6,24.3,5.8
	c22.2-0.4,35.9-20.4,47.9-37.9c12.6-18.4,18.9-36.2,21-43l0.1-0.3c0.4-1.2-0.2-2.5-1.3-3.1c0,0-0.1-0.1-0.2-0.1
	c-3.9-1.6-38.3-16.8-38.6-58.4c-0.3-33.7,25.8-51.6,31-54.8l0.2-0.2c0.6-0.4,1-0.9,1.1-1.6c0.1-0.7,0-1.3-0.4-1.9
	c-18-26.4-45.6-30.3-56.7-30.8c-1.6-0.2-3.3-0.2-4.9-0.2c-13.1,0-25.6,4.9-35.6,8.9c-6.9,2.7-12.9,5.1-17.1,5.1
	c-4.6,0-10.7-2.4-17.6-5.2c-9.3-3.7-19.9-7.9-31.1-7.9c-0.3,0-0.5,0-0.8,0C-74.1,317.6-98.7,332.5-112.3,356.1z"/>
<path d="M59.1,244c-15.8,0.6-34.7,10.3-46,23.6c-9.6,11.1-19,29.7-16.5,48.4
	c0.2,1.2,1.1,2.1,2.3,2.2c1.1,0.1,2.1,0.1,3.2,0.1c15.4,0,32-8.5,43.4-22.3c12-14.5,18-33.1,16.2-49.8C61.5,244.9,60.4,244,59.1,244
	z"/>
</svg>
