<svg xmlns="http://www.w3.org/2000/svg" viewBox="-421 268.2 116.8 24">
<g opacity="0.4981">
	<path d="M-415.3,277.4c-0.1-1,0.6-1.8,1.6-1.9c0.9-0.1,1.8,0.6,1.9,1.6c0.1,1-0.6,1.8-1.6,1.9C-414.3,279-415.2,278.3-415.3,277.4z
		 M-403.1,283.4c-0.2,4.7-4,8.5-8.7,8.7c-0.4,0-0.7,0-1.1,0c-0.1,0-0.1-0.1-0.1-0.1l1.3-2.3c0.2-0.3,0.3-0.7,0.4-1
		c0.1-0.5,0.3-1.9,0.3-1.9c0-0.4,0.2-0.8,0.6-0.9l0.6-0.2c0.4-0.1,0.6,0,0.8,0.3c0.1,0.2,0.4,0.9,0.6,1.2c0.1,0.2,0.1,0.3,0,0.5
		c-0.5,0.5-0.8,0.8-1.1,1.3c-0.3,0.3-0.5,0.8,0,1.1c0.4,0.4,0.9,0,1.1-0.3c0.3-0.3,0.8-1,1.2-1.3c0.3-0.3,0.4-0.6,0.5-1
		c0-0.2,0-0.3-0.1-0.5c-0.1-0.4-1.1-2.7-1.7-4.5c-0.6-1.6-0.9-3.2-0.7-4.8l0.3-3c0,0,0-0.1,0.1-0.1
		C-405.4,275.9-402.9,279.4-403.1,283.4z M-413.1,289.2c0.2-0.3,0.3-0.8,0.3-1.2c0,0,0.2-2.3,0.2-3c0-0.5-0.5-1.7-0.7-2.3
		c-0.5-1.1-1.4-1.3-2.8-1.9c-0.7-0.3-2.6-1-2.6-1c-0.4-0.1-0.5-0.5-0.3-0.8c0.1-0.4,0.6-0.5,0.9-0.4c1,0.3,1.9,0.8,3.6,1.4
		c1.1,0.4,1.6,0.1,2.3-0.3c0.5-0.3,1.1-0.5,1.2-1.4c0.1-0.6,0.4-3.2,0.5-4c0,0,0-0.1-0.1-0.1c-0.5-0.1-1-0.1-1.6-0.1
		c-5,0-9,4.1-9,9.1c0,4.2,2.8,7.7,6.6,8.7c0.1,0,0.1,0,0.1-0.1L-413.1,289.2z M-407.7,272.1l-1.5,0.8c-0.2,0.1-0.3,0-0.4-0.1
		l-1.7-3.4c-0.1-0.2,0-0.3,0.1-0.4l1.5-0.8c0.2-0.1,0.3,0,0.4,0.1l1.7,3.4C-407.5,271.8-407.5,272-407.7,272.1z"/>
	<path d="M-318.3,277l-0.6,3.2h-3v9h-3.5v-9h-3l-0.6-3.2H-318.3z M-384.6,277h10.5l-0.6,3.2h-3v9h-3.4v-9h-3.3V277z M-394.1,283
		c0,2.6,1.7,2.9,3.6,2.9c1,0,2.2-0.2,3-0.4l0.1,3.2c-1.1,0.4-2.5,0.6-3.9,0.6c-3.5,0-6.5-1.9-6.5-6.2c0-3.6,2.4-6.3,6.5-6.3
		c1.4,0,2.9,0.3,4.1,0.9l-1.1,3c-0.8-0.3-1.9-0.5-2.8-0.5C-393.1,280.2-394.1,281.2-394.1,283z M-366.2,286.2
		c-1.7,0-2.9-1.2-2.9-3.1c0-1.9,1.2-3.1,2.9-3.1c1.7,0,2.9,1.2,2.9,3.1C-363.3,285-364.5,286.2-366.2,286.2z M-366.2,276.8
		c-3.5,0-6.4,2.5-6.4,6.3c0,3.8,2.9,6.3,6.4,6.3s6.4-2.5,6.4-6.3C-359.8,279.3-362.7,276.8-366.2,276.8z M-355.6,277h9.2v12.2h-3.4
		v-9h-2.7l-0.3,4.1c-0.2,2.5-0.3,4.9-3.8,4.9h-1.5l0.4-3C-355.8,286.3-356,285.9-355.6,277z M-336.9,286.2c-1.7,0-2.9-1.2-2.9-3.1
		c0-1.9,1.2-3.1,2.9-3.1c1.7,0,2.9,1.2,2.9,3.1C-333.9,285-335.2,286.2-336.9,286.2z M-336.9,276.8c-3.5,0-6.4,2.5-6.4,6.3
		c0,3.8,2.9,6.3,6.4,6.3s6.4-2.5,6.4-6.3C-330.5,279.3-333.3,276.8-336.9,276.8z M-310.6,286.2c-1.7,0-2.9-1.2-2.9-3.1
		c0-1.9,1.2-3.1,2.9-3.1c1.7,0,2.9,1.2,2.9,3.1C-307.6,285-308.9,286.2-310.6,286.2z M-310.6,276.8c-3.5,0-6.4,2.5-6.4,6.3
		c0,3.8,2.9,6.3,6.4,6.3c3.5,0,6.4-2.5,6.4-6.3C-304.2,279.3-307,276.8-310.6,276.8z"/>
</g>
</svg>
