<svg width="137" height="127" viewBox="0 0 137 127" fill="none" xmlns="http://www.w3.org/2000/svg">
<path d="M76.6282 62.6499C76.6282 62.6499 85.3752 54.747 95.1079 49.3527C104.565 43.6301 124.77 34.7229 125.842 36.3348C126.915 37.9467 107.043 46.5845 96.7598 51.3223C86.4476 56.359 76.5994 62.9488 76.6282 62.6499Z" fill="#FF8B4A"/>
<path d="M87.4333 58.8675C87.4622 58.5686 101.323 51.7633 103.164 54.9577C105.091 57.2556 87.4622 58.5686 87.4333 58.8675Z" fill="#FF8B4A"/>
<path d="M91.7654 61.6994C91.8232 61.1017 112.276 59.1566 114.61 63.6053C116.812 66.2315 91.852 60.8028 91.7654 61.6994Z" fill="#FF8B4A"/>
<path d="M83.0571 53.3164C83.0859 53.0175 91.236 35.4039 93.6273 39.2549C95.7721 42.4787 83.0859 53.0175 83.0571 53.3164Z" fill="#FF8B4A"/>
<path d="M80.608 50.0631C80.6658 49.4653 90.6913 6.09018 94.0529 9.43164C97.3857 13.072 80.3038 50.0337 80.608 50.0631Z" fill="#FF8B4A"/>
<path d="M75.2651 57.6916C75.5404 58.0199 75.5155 23.3266 78.4421 24.816C81.6439 26.6338 75.5693 57.721 75.2651 57.6916Z" fill="#FF8B4A"/>
<path d="M73.4091 51.479C73.7133 51.5084 61.653 23.7969 61.6087 21.0777C62.1728 18.4173 69.0714 29.642 70.3478 35.4969C72.2327 41.4106 73.4091 51.479 73.4091 51.479Z" fill="#FF8B4A"/>
<path d="M70.6423 51.5134C70.6135 51.8122 66.293 39.3283 60.0896 27.2658C54.2192 14.9337 46.4658 3.02306 44.5828 3.44441C42.7576 3.26803 49.7139 13.895 55.9751 25.3599C62.8736 36.5846 69.0193 49.2449 70.6423 51.5134Z" fill="#FF8B4A"/>
<path d="M72.5426 60.4451C72.5137 60.744 66.1081 50.7735 58.1237 41.2538C50.4435 31.7635 40.9092 22.3956 38.7508 22.4887C34.1878 22.0478 43.7798 30.8179 53.2853 40.4846C63.0949 50.1807 72.5137 60.744 72.5426 60.4451Z" fill="#FF8B4A"/>
<path d="M80.2209 63.6004C80.2209 63.6004 90.6795 63.4044 102.124 65.717C113.293 67.7013 125.448 72.1942 128.563 74.9085C131.982 77.6522 120.522 72.3215 107.34 68.936C94.4898 65.2809 80.2209 63.6004 80.2209 63.6004Z" fill="#FF8B4A"/>
<path d="M79.4104 65.6337C79.4392 65.3348 100.416 70.6802 105.097 76.2607C110.139 81.2729 79.7435 65.3642 79.4104 65.6337Z" fill="#FF8B4A"/>
<path d="M70.4132 60.2394C70.7463 59.9699 35.4103 41.1705 20.6351 41.5526C6.55495 41.097 12.7411 43.8064 16.0874 44.1297C17.6084 44.2767 27.343 45.2175 38.7296 48.1278C49.8119 51.0087 63.1546 55.918 70.4132 60.2394Z" fill="#FF8B4A"/>
<path d="M69.0539 67.9512C69.0827 67.6523 58.9457 77.2308 50.3008 87.2551C41.3806 96.9512 34.2278 107.421 33.4307 106.138C32.6048 105.153 39.7575 94.6827 48.9242 85.6138C58.1486 75.9471 69.387 67.6817 69.0539 67.9512Z" fill="#FF8B4A"/>
<path d="M61.8261 69.6659C61.5219 69.6365 50.0813 79.994 48.4294 78.0244C46.5021 75.7266 61.8261 69.6659 61.8261 69.6659Z" fill="#FF8B4A"/>
<path d="M57.7116 67.7601C57.4362 67.4318 40.0271 76.0059 37.8534 73.0809C35.1002 69.7982 57.4362 67.4318 57.7116 67.7601Z" fill="#FF8B4A"/>
<path d="M66.2313 74.9182C65.8982 75.1877 59.1536 94.1438 57.2841 91.2482C55.4145 88.3526 65.927 74.8888 66.2313 74.9182Z" fill="#FF8B4A"/>
<path d="M70.2283 71.6846C70.4459 72.6106 56.8295 121.37 54.8445 119.67C52.8884 117.671 69.953 71.3563 70.2283 71.6846Z" fill="#FF8B4A"/>
<path d="M73.486 66.5695C73.7614 66.8978 70.7731 100.998 68.4549 99.5676C66.3544 99.0629 73.4572 66.8684 73.486 66.5695Z" fill="#FF8B4A"/>
<path d="M75.8368 80.3714C76.1122 80.6996 82.564 99.7244 81.4781 101.429C80.6386 103.762 76.8553 95.2511 76.1295 90.0528C75.7078 84.8838 75.8368 80.3714 75.8368 80.3714Z" fill="#FF8B4A"/>
<path d="M77.5158 75.707C77.7911 76.0353 82.693 95.2119 85.1844 94.8493C88.5307 95.1727 80.7619 80.244 77.5158 75.707Z" fill="#FF8B4A"/>
<path d="M75.0648 66.1187C75.0937 65.8199 81.5571 75.1926 87.8318 83.3405C94.4107 91.5177 100.801 98.4701 104.48 98.524C108.131 98.8768 101.987 92.5515 93.9159 83.9284C85.4829 75.8736 75.0937 65.8199 75.0648 66.1187Z" fill="#FF8B4A"/>
<path d="M68.4878 64.2765C68.2125 63.9483 22.0924 70.9545 15.3133 71.2044C-9.89159 71.4836 17.9915 65.7316 30.6661 64.8448C43.3696 63.6592 64.5909 63.2966 68.4878 64.2765Z" fill="#FF8B4A"/>
<path d="M71.7032 62.7773C71.7321 62.4784 48.9743 59.6759 42.9326 55.4721C36.6155 50.9401 71.7609 62.1796 71.7032 62.7773Z" fill="#FF8B4A"/>
<path d="M78.0202 67.3093C78.0491 67.0105 88.3363 74.9428 98.9854 82.3067C109.939 89.7001 120.617 96.7651 125.948 98.7886C134.481 102.63 114.067 88.289 108.576 84.7418C105.707 82.6546 92.5374 75.9521 78.0202 67.3093Z" fill="#FF8B4A"/>
<path d="M120.257 56.0063C120.561 56.0357 120.59 55.7368 120.257 56.0063C119.735 55.0509 118.88 54.365 118.301 54.0073C118.33 53.7084 118.387 53.1107 118.112 52.7824C118.141 52.4836 118.141 52.4835 118.17 52.1847C118.199 51.8858 117.59 51.827 117.59 51.827C117.257 52.0965 116.924 52.366 116.591 52.6354C116.011 52.2778 115.432 51.9201 114.852 51.5624C114.852 51.5624 114.244 51.5036 114.548 51.533C114.795 52.1602 115.345 52.8167 115.896 53.4732C115.534 54.0416 114.897 54.2817 114.535 54.85C114.202 55.1195 114.81 55.1783 115.114 55.2077C115.723 55.2665 116.36 55.0264 117.273 55.1146C117.823 55.7711 118.07 56.3982 118.649 56.7559C118.649 56.7559 119.229 57.1136 119.258 56.8147C119.315 56.217 119.373 55.6192 119.127 54.9921C119.04 55.8887 119.648 55.9475 120.257 56.0063Z" fill="#FF8B4A"/>
<path d="M76.1086 20.3673C76.1086 20.3673 76.4128 20.3967 76.1086 20.3673C75.891 19.4413 75.6734 18.5153 75.1228 17.8587C75.4559 17.5893 75.4848 17.2904 75.8467 16.722C75.8756 16.4232 75.8756 16.4232 76.2087 16.1537C76.2376 15.8548 75.9623 15.5266 75.658 15.4972C75.0496 15.4384 74.4123 15.6785 73.775 15.9185C72.8913 15.5315 72.6449 14.9043 72.0942 14.2478C72.0942 14.2478 71.5147 13.8901 71.4858 14.189C71.428 14.7867 71.6456 15.7127 71.5878 16.3105C70.9505 16.5506 70.0091 16.7612 69.4006 16.7024C69.0964 16.673 69.3429 17.3002 69.6471 17.3296C70.5308 17.7166 71.1392 17.7754 72.023 18.1625C72.2694 18.7896 72.1828 19.6862 72.4292 20.3134C72.4003 20.6122 72.6756 20.9405 73.0087 20.671C73.3707 20.1027 73.7038 19.8332 74.0658 19.2649C74.6453 19.6225 75.2248 19.9802 76.1086 20.3673Z" fill="#FF8B4A"/>
<path d="M39.4651 37.3391C39.7693 37.3685 39.494 37.0402 39.494 37.0402C38.9433 36.3837 38.3638 36.026 37.4801 35.639C37.5089 35.3401 37.2625 34.713 37.2914 34.4141C37.3203 34.1152 37.3203 34.1152 37.3491 33.8164C37.378 33.5175 36.7696 33.4587 36.7407 33.7576C36.3788 34.3259 36.0457 34.5954 35.6837 35.1637C35.0753 35.1049 34.4958 34.7473 33.8873 34.6885C33.8873 34.6885 33.2789 34.6297 33.5543 34.9579C33.8007 35.5851 34.3513 36.2416 34.9309 36.5993C34.5689 37.1676 34.2069 37.7359 33.845 38.3043C33.8161 38.6032 34.1203 38.6325 34.4245 38.6619C34.7576 38.3925 35.3949 38.1524 36.0322 37.9123C36.5828 38.5689 36.8581 38.8971 37.4088 39.5537C37.4088 39.5537 37.9883 39.9113 38.0172 39.6125C38.075 39.0147 37.8285 38.3876 37.8863 37.7898C38.2194 37.5204 38.8278 37.5792 39.4651 37.3391Z" fill="#FF8B4A"/>
<path d="M38.9201 55.6877C38.949 55.3888 38.949 55.3888 38.9201 55.6877C38.3117 55.6289 37.9786 55.8984 37.3125 56.4373C37.0083 56.4079 36.7329 56.0796 36.4287 56.0502L36.1245 56.0208L35.7914 56.2903C36.0668 56.6186 36.009 57.2163 36.2843 57.5446C35.9512 57.8141 35.6181 58.0835 35.5893 58.3824L35.5604 58.6813C35.8646 58.7107 36.473 58.7695 36.8061 58.5C37.0525 59.1271 37.3279 59.4554 37.2701 60.0531C37.2412 60.352 37.5743 60.0825 37.6032 59.7837C37.6609 59.1859 37.6898 58.887 37.7476 58.2893C38.0518 58.3187 38.6891 58.0786 38.9933 58.108C38.9933 58.108 39.3264 57.8386 39.0222 57.8092C38.7469 57.4809 38.1384 57.4221 37.8631 57.0938C38.8335 56.5843 38.8913 55.9866 38.9201 55.6877Z" fill="#FF8B4A"/>
<path d="M114.236 73.8257C114.236 73.8257 114.265 73.5269 114.236 73.8257C113.657 73.4681 113.019 73.7081 112.715 73.6787C112.44 73.3505 112.136 73.3211 112.165 73.0222C112.165 73.0222 111.86 72.9928 111.889 72.6939C111.889 72.6939 111.585 72.6645 111.556 72.9634C111.527 73.2623 111.803 73.5905 111.774 73.8894C111.441 74.1589 111.136 74.1295 110.803 74.399C110.803 74.399 110.47 74.6684 110.774 74.6978C111.383 74.7566 111.658 75.0849 112.267 75.1437C112.238 75.4426 112.484 76.0697 112.455 76.3686C112.426 76.6674 112.759 76.398 112.759 76.398C112.788 76.0991 113.121 75.8296 113.483 75.2613C113.788 75.2907 114.396 75.3495 114.976 75.7071C114.976 75.7071 115.28 75.7365 115.309 75.4377C115.033 75.1094 114.758 74.7811 114.483 74.4529C113.874 74.3941 113.903 74.0952 114.236 73.8257Z" fill="#FF8B4A"/>
<path d="M73.2933 100.337C73.5975 100.366 73.2933 100.337 73.2933 100.337C72.6849 100.278 72.3518 100.547 71.7146 100.788C71.4103 100.758 71.4392 100.459 71.135 100.43L70.8308 100.4L70.4977 100.67C70.4689 100.969 70.7442 101.297 70.7153 101.596C70.3822 101.865 70.0491 102.135 69.716 102.404L69.6871 102.703C69.9914 102.733 70.5998 102.791 70.9328 102.522C70.904 102.821 71.1504 103.448 71.1215 103.747C71.0926 104.046 71.4257 103.776 71.4546 103.477C71.5124 102.88 71.8455 102.61 71.9032 102.012C72.2074 102.042 72.8447 101.802 73.1489 101.831L73.482 101.562C73.2067 101.233 72.9025 101.204 72.6272 100.876C73.2067 101.233 73.2356 100.935 73.2933 100.337Z" fill="#FF8B4A"/>
<path d="M40.6509 79.0828C40.6509 79.0828 40.3467 79.0534 40.6509 79.0828C40.0425 79.024 39.7094 79.2935 39.3763 79.5629C39.0721 79.5335 38.7968 79.2053 38.7968 79.2053L38.4926 79.1759L38.1595 79.4453C38.4348 79.7736 38.3771 80.3713 38.6524 80.6996C38.3193 80.9691 37.9862 81.2385 37.9574 81.5374L37.9285 81.8363C38.2327 81.8657 38.8411 81.9245 39.1453 81.9539C39.3917 82.581 39.3629 82.8799 39.6093 83.507C39.5804 83.8059 39.9135 83.5364 39.9424 83.2375C40.0001 82.6398 40.029 82.3409 40.0868 81.7432C40.391 81.7726 40.7241 81.5031 41.3325 81.5619C41.3325 81.5619 41.6656 81.2924 41.3614 81.2631C41.0861 80.9348 40.7819 80.9054 40.5065 80.5771C40.2601 79.95 40.289 79.6511 40.6509 79.0828Z" fill="#FF8B4A"/>
<path d="M96.7885 98.6857C96.8174 98.3868 96.8174 98.3868 96.7885 98.6857C96.1801 98.6269 95.5428 98.867 95.2097 99.1364C94.9055 99.107 94.9344 98.8082 94.6302 98.7788L94.326 98.7494C94.326 98.7494 94.0218 98.72 93.9929 99.0188C93.964 99.3177 94.2393 99.646 94.2104 99.9448C93.8773 100.214 93.5443 100.484 93.2112 100.753C93.2112 100.753 92.8781 101.023 93.1823 101.052C93.4865 101.082 94.0949 101.14 94.3991 101.17C94.3702 101.469 94.6456 101.797 94.5878 102.395L94.892 102.424C94.9209 102.125 95.2829 101.557 95.6159 101.287C95.9202 101.317 96.5286 101.375 96.8617 101.106L97.1947 100.837C96.9194 100.508 96.6152 100.479 96.3399 100.151C96.4265 99.254 96.7596 98.9845 96.7885 98.6857Z" fill="#FF8B4A"/>
</svg>
