<svg width="85" height="74" viewBox="0 0 85 74" fill="none" xmlns="http://www.w3.org/2000/svg">
<path d="M41.0651 40.8011C41.0651 40.8011 35.8911 34.8304 32.4169 28.2414C28.7181 21.8311 23.0447 8.18948 24.1438 7.49892C25.2428 6.80837 30.7403 20.2231 33.765 27.1694C36.9901 34.1398 41.2654 40.8252 41.0651 40.8011Z" fill="#FF8B4A"/>
<path d="M38.69 33.5216C38.4897 33.4975 34.131 24.128 36.3047 22.9496C37.8774 21.699 38.4897 33.4975 38.69 33.5216Z" fill="#FF8B4A"/>
<path d="M34.8948 36.3561C34.6945 36.332 22.9892 30.6039 25.6123 29.0683C27.8103 27.6871 34.6945 36.332 34.8948 36.3561Z" fill="#FF8B4A"/>
<path d="M37.7141 41.6321C37.9388 41.4534 14.6373 40.9124 15.6824 38.9812C16.9523 36.8713 37.7385 41.4293 37.7141 41.6321Z" fill="#FF8B4A"/>
<path d="M33.5132 42.7722C33.5376 42.5694 14.7412 50.1813 12.9142 50.1672C11.136 49.7476 18.7804 45.3192 22.7323 44.5605C26.7329 43.3963 33.5132 42.7722 33.5132 42.7722Z" fill="#FF8B4A"/>
<path d="M33.4939 44.6212C33.6942 44.6453 25.2435 47.3311 17.0471 51.2816C8.67471 55.0053 0.556548 59.9938 0.810743 61.2585C0.664362 62.4751 7.90818 57.9985 15.7041 53.9998C23.3485 49.5714 31.9455 45.6691 33.4939 44.6212Z" fill="#FF8B4A"/>
<path d="M39.5218 43.4952C39.7221 43.5193 32.9277 47.6385 26.4118 52.8198C19.9203 57.7983 13.4828 64.0174 13.5123 65.4609C13.1464 68.5023 19.1833 62.235 25.8212 56.0399C32.4834 49.6421 39.7221 43.5193 39.5218 43.4952Z" fill="#FF8B4A"/>
<path d="M41.7585 38.4161C41.7585 38.4161 41.7868 31.4258 43.515 23.8172C45.0186 16.3873 48.222 8.33909 50.0927 6.30148C51.9877 4.06112 48.2322 11.6315 45.7568 20.3844C43.1054 28.9104 41.7585 38.4161 41.7585 38.4161Z" fill="#FF8B4A"/>
<path d="M43.1117 38.9903C42.9114 38.9662 46.8223 25.0379 50.642 22.0006C54.0854 18.7124 42.9358 38.7635 43.1117 38.9903Z" fill="#FF8B4A"/>
<path d="M45.5509 50.803C45.5265 51.0057 52.308 58.8154 50.9599 59.8874C49.3871 61.1381 45.5509 50.803 45.5509 50.803Z" fill="#FF8B4A"/>
<path d="M44.208 53.5212C43.9833 53.6998 49.4756 65.4684 47.4779 66.8736C45.231 68.6602 43.9833 53.6998 44.208 53.5212Z" fill="#FF8B4A"/>
<path d="M49.1459 47.9443C49.3218 48.1712 61.9501 52.9818 59.9768 54.1843C58.0034 55.3868 49.1215 48.1471 49.1459 47.9443Z" fill="#FF8B4A"/>
<path d="M47.0352 45.222C47.6605 45.0915 80.2008 54.9721 79.0285 56.2709C77.656 57.5457 46.8105 45.4006 47.0352 45.222Z" fill="#FF8B4A"/>
<path d="M43.6496 42.9633C43.8743 42.7847 66.7315 45.3292 65.7352 46.8549C65.3641 48.2501 43.8499 42.9874 43.6496 42.9633Z" fill="#FF8B4A"/>
<path d="M50.3248 33.9194C50.4127 33.6461 58.9073 23.1734 60.2639 23.1741C61.8885 22.8106 58.4095 28.0018 55.7174 30.278C52.9332 32.372 50.3248 33.9194 50.3248 33.9194Z" fill="#FF8B4A"/>
<path d="M49.8483 40.418C50.0729 40.2393 63.0275 37.2727 62.8221 35.6024C63.0905 33.372 52.9451 38.3222 49.8483 40.418Z" fill="#FF8B4A"/>
<path d="M41.0754 44.0935C40.8751 44.0694 38.6447 59.2284 35.7289 63.1973C32.5885 67.3448 40.6748 44.0453 41.0754 44.0935Z" fill="#FF8B4A"/>
</svg>
