<svg width="83" height="56" viewBox="0 0 83 56" fill="none" xmlns="http://www.w3.org/2000/svg">
<path d="M27.1346 37.5218H32.2319M63.6324 27.0508V11.5912C63.6324 10.1303 62.1902 8.85205 60.5421 8.85205H25.5184C23.8703 8.85205 22.4281 10.1303 22.4281 11.5912V28.3485M55.5336 37.5218H50.4363" stroke="black" stroke-width="2" stroke-miterlimit="10" stroke-linecap="round" stroke-linejoin="round"/>
<path d="M27.1346 37.5218H32.2319M63.6324 27.0508V11.5912C63.6324 10.1303 62.1902 8.85205 60.5421 8.85205H25.5184C23.8703 8.85205 22.4281 10.1303 22.4281 11.5912V28.3485M55.5336 37.5218H50.4363" stroke="#FFCA42" stroke-width="2" stroke-miterlimit="10" stroke-linecap="round" stroke-linejoin="round"/>
<path d="M35.1446 32.774H29.8451C28.609 32.774 27.7849 32.0436 27.7849 30.9479V15.6087C27.7849 14.513 28.609 13.7826 29.8451 13.7826H49.0051C50.2412 13.7826 51.0653 14.513 51.0653 15.6087V30.9479C51.0653 31.861 50.2412 32.774 49.0051 32.774H47.5236" stroke="black" stroke-width="2" stroke-miterlimit="10" stroke-linecap="round" stroke-linejoin="round"/>
<path d="M35.1446 32.774H29.8451C28.609 32.774 27.7849 32.0436 27.7849 30.9479V15.6087C27.7849 14.513 28.609 13.7826 29.8451 13.7826H49.0051C50.2412 13.7826 51.0653 14.513 51.0653 15.6087V30.9479C51.0653 31.861 50.2412 32.774 49.0051 32.774H47.5236" stroke="#FFCA42" stroke-width="2" stroke-miterlimit="10" stroke-linecap="round" stroke-linejoin="round"/>
<path d="M49.2106 8.85237H34.7891C34.7891 7.02623 38.0854 5.74792 41.9998 5.74792C45.9142 5.74792 49.2106 7.20884 49.2106 8.85237Z" stroke="black" stroke-width="2" stroke-miterlimit="10" stroke-linecap="round" stroke-linejoin="round"/>
<path d="M49.2106 8.85237H34.7891C34.7891 7.02623 38.0854 5.74792 41.9998 5.74792C45.9142 5.74792 49.2106 7.20884 49.2106 8.85237Z" stroke="#FFCA42" stroke-width="2" stroke-miterlimit="10" stroke-linecap="round" stroke-linejoin="round"/>
<path d="M56.4213 1L45.7081 5.74783" stroke="black" stroke-width="2" stroke-miterlimit="10" stroke-linecap="round" stroke-linejoin="round"/>
<path d="M56.4213 1L45.7081 5.74783" stroke="#FFCA42" stroke-width="2" stroke-miterlimit="10" stroke-linecap="round" stroke-linejoin="round"/>
<path d="M27.7849 1L38.498 5.74783" stroke="black" stroke-width="2" stroke-miterlimit="10" stroke-linecap="round" stroke-linejoin="round"/>
<path d="M27.7849 1L38.498 5.74783" stroke="#FFCA42" stroke-width="2" stroke-miterlimit="10" stroke-linecap="round" stroke-linejoin="round"/>
<path d="M57.4515 18.1653C58.9306 18.1653 60.1297 17.1024 60.1297 15.7913C60.1297 14.4802 58.9306 13.4174 57.4515 13.4174C55.9723 13.4174 54.7732 14.4802 54.7732 15.7913C54.7732 17.1024 55.9723 18.1653 57.4515 18.1653Z" stroke="black" stroke-width="2" stroke-miterlimit="10" stroke-linecap="round" stroke-linejoin="round"/>
<path d="M57.4515 18.1653C58.9306 18.1653 60.1297 17.1024 60.1297 15.7913C60.1297 14.4802 58.9306 13.4174 57.4515 13.4174C55.9723 13.4174 54.7732 14.4802 54.7732 15.7913C54.7732 17.1024 55.9723 18.1653 57.4515 18.1653Z" stroke="#FFCA42" stroke-width="2" stroke-miterlimit="10" stroke-linecap="round" stroke-linejoin="round"/>
<path d="M57.4515 25.47C58.9306 25.47 60.1297 24.4071 60.1297 23.096C60.1297 21.7849 58.9306 20.722 57.4515 20.722C55.9723 20.722 54.7732 21.7849 54.7732 23.096C54.7732 24.4071 55.9723 25.47 57.4515 25.47Z" stroke="black" stroke-width="2" stroke-miterlimit="10" stroke-linecap="round" stroke-linejoin="round"/>
<path d="M57.4515 25.47C58.9306 25.47 60.1297 24.4071 60.1297 23.096C60.1297 21.7849 58.9306 20.722 57.4515 20.722C55.9723 20.722 54.7732 21.7849 54.7732 23.096C54.7732 24.4071 55.9723 25.47 57.4515 25.47Z" stroke="#FFCA42" stroke-width="2" stroke-miterlimit="10" stroke-linecap="round" stroke-linejoin="round"/>
<path d="M41.382 46.4699C46.2746 46.4699 50.2409 42.9543 50.2409 38.6177C50.2409 34.281 46.2746 30.7654 41.382 30.7654C36.4893 30.7654 32.5231 34.281 32.5231 38.6177C32.5231 42.9543 36.4893 46.4699 41.382 46.4699Z" stroke="black" stroke-width="2" stroke-miterlimit="10"/>
<path d="M41.382 46.4699C46.2746 46.4699 50.2409 42.9543 50.2409 38.6177C50.2409 34.281 46.2746 30.7654 41.382 30.7654C36.4893 30.7654 32.5231 34.281 32.5231 38.6177C32.5231 42.9543 36.4893 46.4699 41.382 46.4699Z" stroke="#FFCA42" stroke-width="2" stroke-miterlimit="10"/>
<path d="M16.6598 45.1911C22.2351 45.1911 26.7548 41.185 26.7548 36.2432C26.7548 31.3015 22.2351 27.2953 16.6598 27.2953C11.0844 27.2953 6.5647 31.3015 6.5647 36.2432C6.5647 41.185 11.0844 45.1911 16.6598 45.1911Z" stroke="black" stroke-width="2" stroke-miterlimit="10"/>
<path d="M16.6598 45.1911C22.2351 45.1911 26.7548 41.185 26.7548 36.2432C26.7548 31.3015 22.2351 27.2953 16.6598 27.2953C11.0844 27.2953 6.5647 31.3015 6.5647 36.2432C6.5647 41.185 11.0844 45.1911 16.6598 45.1911Z" stroke="#FFCA42" stroke-width="2" stroke-miterlimit="10"/>
<path d="M66.1048 45.1911C71.6802 45.1911 76.1999 41.185 76.1999 36.2432C76.1999 31.3015 71.6802 27.2953 66.1048 27.2953C60.5295 27.2953 56.0098 31.3015 56.0098 36.2432C56.0098 41.185 60.5295 45.1911 66.1048 45.1911Z" stroke="black" stroke-width="2" stroke-miterlimit="10"/>
<path d="M66.1048 45.1911C71.6802 45.1911 76.1999 41.185 76.1999 36.2432C76.1999 31.3015 71.6802 27.2953 66.1048 27.2953C60.5295 27.2953 56.0098 31.3015 56.0098 36.2432C56.0098 41.185 60.5295 45.1911 66.1048 45.1911Z" stroke="#FFCA42" stroke-width="2" stroke-miterlimit="10"/>
<path d="M31.0811 48.6617C32.3172 47.0182 33.7593 45.7399 35.6135 44.8268" stroke="black" stroke-width="2" stroke-miterlimit="10"/>
<path d="M31.0811 48.6617C32.3172 47.0182 33.7593 45.7399 35.6135 44.8268" stroke="#FFCA42" stroke-width="2" stroke-miterlimit="10"/>
<path d="M53.9491 54.5049C48.5925 54.5049 37.6734 54.5049 32.3168 54.5049C31.6988 54.5049 31.0807 54.5049 30.4626 54.5049" stroke="black" stroke-width="2" stroke-miterlimit="10"/>
<path d="M53.9491 54.5049C48.5925 54.5049 37.6734 54.5049 32.3168 54.5049C31.6988 54.5049 31.0807 54.5049 30.4626 54.5049" stroke="#FFCA42" stroke-width="2" stroke-miterlimit="10"/>
<path d="M47.9747 44.2781C50.447 45.1912 52.3012 46.8346 53.5373 48.6607" stroke="black" stroke-width="2" stroke-miterlimit="10"/>
<path d="M47.9747 44.2781C50.447 45.1912 52.3012 46.8346 53.5373 48.6607" stroke="#FFCA42" stroke-width="2" stroke-miterlimit="10"/>
<path d="M24.0761 42.8176C28.6085 44.6437 31.6989 48.4785 32.5229 52.8611C32.729 53.7742 31.9049 54.5046 30.8748 54.5046C25.3122 54.5046 9.44855 54.5046 3.67995 54.5046C2.64985 54.5046 1.82576 53.5916 2.03178 52.8611C3.06189 48.4785 6.88414 44.6437 10.3865 42.8176" stroke="black" stroke-width="2" stroke-miterlimit="10"/>
<path d="M24.0761 42.8176C28.6085 44.6437 31.6989 48.4785 32.5229 52.8611C32.729 53.7742 31.9049 54.5046 30.8748 54.5046C25.3122 54.5046 9.44855 54.5046 3.67995 54.5046C2.64985 54.5046 1.82576 53.5916 2.03178 52.8611C3.06189 48.4785 6.88414 44.6437 10.3865 42.8176" stroke="#FFCA42" stroke-width="2" stroke-miterlimit="10"/>
<path d="M73.5214 42.8176C78.0538 44.6437 81.1442 48.4785 81.9683 52.8611C82.1743 53.7742 81.3502 54.5046 80.3201 54.5046C74.7575 54.5046 58.8939 54.5046 53.1253 54.5046C52.0952 54.5046 51.2711 53.5916 51.4771 52.8611C52.5072 48.4785 54.8057 45.2187 59.1747 42.8176" stroke="black" stroke-width="2" stroke-miterlimit="10"/>
<path d="M73.5214 42.8176C78.0538 44.6437 81.1442 48.4785 81.9683 52.8611C82.1743 53.7742 81.3502 54.5046 80.3201 54.5046C74.7575 54.5046 58.8939 54.5046 53.1253 54.5046C52.0952 54.5046 51.2711 53.5916 51.4771 52.8611C52.5072 48.4785 54.8057 45.2187 59.1747 42.8176" stroke="#FFCA42" stroke-width="2" stroke-miterlimit="10"/>
</svg>
