<svg width="88" height="54" viewBox="0 0 88 54" fill="none" xmlns="http://www.w3.org/2000/svg">
<path d="M52.2863 12.0438L36.6091 11.8273L32.5779 1.43309C32.5779 1.21655 32.5779 1 33.0258 1C35.0414 1 37.0571 1.21655 39.0727 3.16545C40.1925 1.86618 41.3123 1 44.6717 1C48.0311 1 49.1509 1.86618 50.2707 3.382C52.2863 1.43309 54.3019 1.21655 56.5415 1.21655C56.7655 1.21655 56.9894 1.43309 56.9894 1.64964L52.2863 12.0438Z" stroke="black" stroke-width="2" stroke-miterlimit="10"/>
<path d="M52.2863 12.0438L36.6091 11.8273L32.5779 1.43309C32.5779 1.21655 32.5779 1 33.0258 1C35.0414 1 37.0571 1.21655 39.0727 3.16545C40.1925 1.86618 41.3123 1 44.6717 1C48.0311 1 49.1509 1.86618 50.2707 3.382C52.2863 1.43309 54.3019 1.21655 56.5415 1.21655C56.7655 1.21655 56.9894 1.43309 56.9894 1.64964L52.2863 12.0438Z" stroke="#FFCA42" stroke-width="2" stroke-miterlimit="10"/>
<path d="M52.2867 12.0438H44.4481H36.6096C32.1304 16.3747 25.1877 23.9537 25.1877 31.3162C24.9637 41.7102 33.4741 50.372 44.0002 51.0216C54.5263 50.5885 63.2607 42.1433 63.2607 31.7493C63.2607 24.1702 56.5419 16.3747 52.2867 12.0438Z" stroke="black" stroke-width="2" stroke-miterlimit="10"/>
<path d="M52.2867 12.0438H44.4481H36.6096C32.1304 16.3747 25.1877 23.9537 25.1877 31.3162C24.9637 41.7102 33.4741 50.372 44.0002 51.0216C54.5263 50.5885 63.2607 42.1433 63.2607 31.7493C63.2607 24.1702 56.5419 16.3747 52.2867 12.0438Z" stroke="#FFCA42" stroke-width="2" stroke-miterlimit="10"/>
<path d="M63.9317 18.7565L77.5932 18.9731L81.4005 10.0948C81.4005 9.87822 81.4005 9.66167 81.1766 9.66167C79.3849 9.66167 77.5932 9.87822 75.8015 11.394C74.9057 10.3113 73.7859 9.44513 70.8745 9.44513C67.963 9.44513 66.8432 10.0948 65.9474 11.394C64.1557 9.66167 62.364 9.44513 60.5723 9.44513C60.3484 9.44513 60.1244 9.66167 60.3484 9.87822L63.9317 18.7565Z" stroke="black" stroke-width="2" stroke-miterlimit="10"/>
<path d="M63.9317 18.7565L77.5932 18.9731L81.4005 10.0948C81.4005 9.87822 81.4005 9.66167 81.1766 9.66167C79.3849 9.66167 77.5932 9.87822 75.8015 11.394C74.9057 10.3113 73.7859 9.44513 70.8745 9.44513C67.963 9.44513 66.8432 10.0948 65.9474 11.394C64.1557 9.66167 62.364 9.44513 60.5723 9.44513C60.3484 9.44513 60.1244 9.66167 60.3484 9.87822L63.9317 18.7565Z" stroke="#FFCA42" stroke-width="2" stroke-miterlimit="10"/>
<path d="M60.3487 22.4378C61.6925 20.922 62.8123 19.8392 63.9321 18.7565H70.6508H77.3696C81.1769 22.6543 86.9999 29.1506 86.9999 35.8635C86.7759 44.9583 79.3852 52.1043 70.2029 52.5374C64.7401 52.1311 60.0658 49.4377 57.1045 45.5302" stroke="black" stroke-width="2" stroke-miterlimit="10"/>
<path d="M60.3487 22.4378C61.6925 20.922 62.8123 19.8392 63.9321 18.7565H70.6508H77.3696C81.1769 22.6543 86.9999 29.1506 86.9999 35.8635C86.7759 44.9583 79.3852 52.1043 70.2029 52.5374C64.7401 52.1311 60.0658 49.4377 57.1045 45.5302" stroke="#FFCA42" stroke-width="2" stroke-miterlimit="10"/>
<path d="M23.8437 18.7567H10.4062L6.375 9.87845C6.375 9.66191 6.375 9.44536 6.59896 9.44536C8.39062 9.44536 10.1823 9.66191 11.974 11.1777C13.0937 10.3115 13.9896 9.44536 16.901 9.22882C19.8125 9.22882 20.9323 9.87845 21.8281 11.1777C23.6198 9.44536 25.4114 9.22882 27.2031 9.22882C27.4271 9.22882 27.651 9.44536 27.4271 9.66191L23.8437 18.7567Z" stroke="black" stroke-width="2" stroke-miterlimit="10"/>
<path d="M23.8437 18.7567H10.4062L6.375 9.87845C6.375 9.66191 6.375 9.44536 6.59896 9.44536C8.39062 9.44536 10.1823 9.66191 11.974 11.1777C13.0937 10.3115 13.9896 9.44536 16.901 9.22882C19.8125 9.22882 20.9323 9.87845 21.8281 11.1777C23.6198 9.44536 25.4114 9.22882 27.2031 9.22882C27.4271 9.22882 27.651 9.44536 27.4271 9.66191L23.8437 18.7567Z" stroke="#FFCA42" stroke-width="2" stroke-miterlimit="10"/>
<path d="M27.6511 22.4378C26.3074 20.922 25.1876 19.8392 24.0678 18.7565H17.349H10.6302C6.82294 22.6543 1 29.1506 1 35.8635C1.22396 44.9583 8.61461 52.1043 17.7969 52.5374C23.6199 52.1043 28.547 49.0727 31.4584 44.7418" stroke="black" stroke-width="2" stroke-miterlimit="10"/>
<path d="M27.6511 22.4378C26.3074 20.922 25.1876 19.8392 24.0678 18.7565H17.349H10.6302C6.82294 22.6543 1 29.1506 1 35.8635C1.22396 44.9583 8.61461 52.1043 17.7969 52.5374C23.6199 52.1043 28.547 49.0727 31.4584 44.7418" stroke="#FFCA42" stroke-width="2" stroke-miterlimit="10"/>
<path d="M66.1719 34.9976H68.8594H72.4427C75.1302 34.9976 76.9219 33.4817 76.9219 31.0998C76.9219 28.7178 75.3542 27.202 72.6667 27.202H68.4115L68.1875 27.4185V41.2773M66.1719 38.0292H68.1875H68.6354H73.3385H66.1719Z" stroke="black" stroke-width="2" stroke-miterlimit="10" stroke-linecap="round" stroke-linejoin="round"/>
<path d="M66.1719 34.9976H68.8594H72.4427C75.1302 34.9976 76.9219 33.4817 76.9219 31.0998C76.9219 28.7178 75.3542 27.202 72.6667 27.202H68.4115L68.1875 27.4185V41.2773M66.1719 38.0292H68.1875H68.6354H73.3385H66.1719Z" stroke="#FFCA42" stroke-width="2" stroke-miterlimit="10" stroke-linecap="round" stroke-linejoin="round"/>
<path d="M39.8765 30.9774H42.564H46.1473C48.8348 30.9774 50.6265 29.4616 50.6265 27.0796C50.6265 24.6976 49.0588 23.1818 46.3713 23.1818H42.1161L41.8921 23.3984V37.2571M39.8765 34.009H41.8921H42.34H47.0431H39.8765Z" stroke="black" stroke-width="2" stroke-miterlimit="10" stroke-linecap="round" stroke-linejoin="round"/>
<path d="M39.8765 30.9774H42.564H46.1473C48.8348 30.9774 50.6265 29.4616 50.6265 27.0796C50.6265 24.6976 49.0588 23.1818 46.3713 23.1818H42.1161L41.8921 23.3984V37.2571M39.8765 34.009H41.8921H42.34H47.0431H39.8765Z" stroke="#FFCA42" stroke-width="2" stroke-miterlimit="10" stroke-linecap="round" stroke-linejoin="round"/>
<path d="M11.7498 34.9976H14.4373H18.0206C20.7081 34.9976 22.4998 33.4817 22.4998 31.0998C22.4998 28.7178 20.9321 27.202 18.2446 27.202H13.9893L13.7654 27.4185V41.2773M11.7498 38.0292H13.7654H14.2133H18.9164H11.7498Z" stroke="black" stroke-width="2" stroke-miterlimit="10" stroke-linecap="round" stroke-linejoin="round"/>
<path d="M11.7498 34.9976H14.4373H18.0206C20.7081 34.9976 22.4998 33.4817 22.4998 31.0998C22.4998 28.7178 20.9321 27.202 18.2446 27.202H13.9893L13.7654 27.4185V41.2773M11.7498 38.0292H13.7654H14.2133H18.9164H11.7498Z" stroke="#FFCA42" stroke-width="2" stroke-miterlimit="10" stroke-linecap="round" stroke-linejoin="round"/>
</svg>
