<?xml version="1.0" encoding="utf-8"?>
<!-- Generator: Adobe Illustrator 23.0.2, SVG Export Plug-In . SVG Version: 6.00 Build 0)  -->
<svg version="1.1" id="Слой_1" xmlns="http://www.w3.org/2000/svg" xmlns:xlink="http://www.w3.org/1999/xlink" x="0px" y="0px"
	 viewBox="0 0 100.3 100.3" enable-background="new 0 0 100.3 100.3" xml:space="preserve">
<g>
	<circle fill="#FFFFFF" stroke="#E28133" stroke-miterlimit="10" cx="50.1" cy="50.1" r="16.2"/>
	<path fill="#FFFFFF" stroke="#E28133" stroke-miterlimit="10" d="M99.5,29.5c0-3.8-1.3-8.8-2.5-11.9c-2.5-6.9-7.5-11.9-14.4-14.4
		C78.9,2,74.5,0.7,70.7,0.7c-5.6-0.6-6.9-0.6-20.6-0.6s-15,0-20.6,0.6c-3.8,0-8.1,1.3-11.9,2.5c-6.9,2.5-12.5,7.5-15,14.4
		c-1.3,3.8-1.9,8.1-1.9,11.9c-0.6,5.6-0.6,6.9-0.6,20.6s0,15,0.6,20.6c0,3.8,1.3,8.1,2.5,11.9c2.5,6.9,7.5,11.9,14.4,14.4
		c3.8,1.3,8.1,2.5,11.9,2.5c5.6,0.6,6.9,0.6,20.6,0.6s15,0,20.6-0.6c3.8,0,8.1-1.3,11.9-2.5c6.9-2.5,11.9-7.5,14.4-14.4
		c1.3-3.8,2.5-8.1,2.5-11.9c0.6-5.6,0.6-6.9,0.6-20.6S100.1,35.1,99.5,29.5z M50.1,75.7c-14.4,0-25.6-11.2-25.6-25.6
		s11.2-25.6,25.6-25.6s25.6,11.2,25.6,25.6S64.5,75.7,50.1,75.7z M77,29.5c-3.1,0-6.3-2.5-6.3-6.3c0-3.8,2.5-6.3,6.3-6.3
		c3.1,0,6.3,2.5,6.3,6.3C83.2,27,80.1,29.5,77,29.5z"/>
</g>
</svg>
