<svg width="412" height="40" viewBox="0 0 412 40" fill="none" xmlns="http://www.w3.org/2000/svg">
<path d="M39.312 1.2V39H28.782V9.678H17.928L17.712 15.834C17.532 21.234 17.082 25.626 16.362 29.01C15.678 32.394 14.49 35.022 12.798 36.894C11.106 38.73 8.712 39.648 5.616 39.648C4.176 39.648 2.556 39.432 0.756 39L1.35 30.252C1.818 30.36 2.304 30.414 2.808 30.414C4.212 30.414 5.292 29.856 6.048 28.74C6.804 27.624 7.344 26.076 7.668 24.096C7.992 22.08 8.208 19.47 8.316 16.266L8.856 1.2H39.312ZM65.9737 39.756C61.9777 39.756 58.3777 38.91 55.1737 37.218C52.0057 35.526 49.5037 33.186 47.6677 30.198C45.8677 27.21 44.9677 23.844 44.9677 20.1C44.9677 16.356 45.8677 12.99 47.6677 10.002C49.5037 7.014 52.0057 4.674 55.1737 2.982C58.3777 1.29 61.9777 0.443998 65.9737 0.443998C69.9697 0.443998 73.5517 1.29 76.7197 2.982C79.9237 4.674 82.4257 7.014 84.2257 10.002C86.0617 12.99 86.9797 16.356 86.9797 20.1C86.9797 23.844 86.0617 27.21 84.2257 30.198C82.4257 33.186 79.9237 35.526 76.7197 37.218C73.5517 38.91 69.9697 39.756 65.9737 39.756ZM65.9737 30.9C67.8817 30.9 69.6097 30.45 71.1577 29.55C72.7057 28.65 73.9297 27.39 74.8297 25.77C75.7297 24.114 76.1797 22.224 76.1797 20.1C76.1797 17.976 75.7297 16.104 74.8297 14.484C73.9297 12.828 72.7057 11.55 71.1577 10.65C69.6097 9.75 67.8817 9.3 65.9737 9.3C64.0657 9.3 62.3377 9.75 60.7897 10.65C59.2417 11.55 58.0177 12.828 57.1177 14.484C56.2177 16.104 55.7677 17.976 55.7677 20.1C55.7677 22.224 56.2177 24.114 57.1177 25.77C58.0177 27.39 59.2417 28.65 60.7897 29.55C62.3377 30.45 64.0657 30.9 65.9737 30.9ZM122.625 9.678H111.069V39H100.539V9.678H88.9291V1.2H122.625V9.678ZM145.603 39.756C141.607 39.756 138.007 38.91 134.803 37.218C131.635 35.526 129.133 33.186 127.297 30.198C125.497 27.21 124.597 23.844 124.597 20.1C124.597 16.356 125.497 12.99 127.297 10.002C129.133 7.014 131.635 4.674 134.803 2.982C138.007 1.29 141.607 0.443998 145.603 0.443998C149.599 0.443998 153.181 1.29 156.349 2.982C159.553 4.674 162.055 7.014 163.855 10.002C165.691 12.99 166.609 16.356 166.609 20.1C166.609 23.844 165.691 27.21 163.855 30.198C162.055 33.186 159.553 35.526 156.349 37.218C153.181 38.91 149.599 39.756 145.603 39.756ZM145.603 30.9C147.511 30.9 149.239 30.45 150.787 29.55C152.335 28.65 153.559 27.39 154.459 25.77C155.359 24.114 155.809 22.224 155.809 20.1C155.809 17.976 155.359 16.104 154.459 14.484C153.559 12.828 152.335 11.55 150.787 10.65C149.239 9.75 147.511 9.3 145.603 9.3C143.695 9.3 141.967 9.75 140.419 10.65C138.871 11.55 137.647 12.828 136.747 14.484C135.847 16.104 135.397 17.976 135.397 20.1C135.397 22.224 135.847 24.114 136.747 25.77C137.647 27.39 138.871 28.65 140.419 29.55C141.967 30.45 143.695 30.9 145.603 30.9ZM206.399 39L206.345 18.966L196.625 35.274H191.873L182.153 19.398V39H172.325V1.2H181.127L194.411 23.016L207.371 1.2H216.173L216.281 39H206.399ZM250.403 31.656H234.419L231.449 39H220.541L237.227 1.2H247.757L264.497 39H253.373L250.403 31.656ZM247.271 23.772L242.411 11.676L237.551 23.772H247.271ZM304.793 1.2V39H294.101V24.258H279.521V39H268.829V1.2H279.521V15.402H294.101V1.2H304.793ZM312.915 1.2H323.445V23.394L339.051 1.2H349.095V39H338.565V16.86L323.013 39H312.915V1.2ZM357.212 1.2H367.742V23.394L383.348 1.2H393.392V39H382.862V16.86L367.31 39H357.212V1.2ZM399.511 1.2H411.715L409.663 25.23H401.509L399.511 1.2ZM405.613 39.486C403.813 39.486 402.337 38.946 401.185 37.866C400.033 36.75 399.457 35.4 399.457 33.816C399.457 32.196 400.033 30.864 401.185 29.82C402.337 28.776 403.813 28.254 405.613 28.254C407.413 28.254 408.871 28.776 409.987 29.82C411.139 30.864 411.715 32.196 411.715 33.816C411.715 35.4 411.139 36.75 409.987 37.866C408.835 38.946 407.377 39.486 405.613 39.486Z" fill="url(#paint0_linear)"/>
<defs>
<linearGradient id="paint0_linear" x1="414" y1="-3.35623" x2="1.55414e-07" y2="-3.35622" gradientUnits="userSpaceOnUse">
<stop stop-color="#FCFF00"/>
<stop offset="0.505208" stop-color="#FF9A00"/>
<stop offset="1" stop-color="#F559C8"/>
</linearGradient>
</defs>
</svg>
