<svg width="329" height="15" viewBox="0 0 329 15" fill="none" xmlns="http://www.w3.org/2000/svg">
<path d="M6.784 12.128C5.65333 12.128 4.63467 11.8827 3.728 11.392C2.82133 10.8907 2.10667 10.2027 1.584 9.328C1.072 8.45333 0.816 7.47733 0.816 6.4C0.816 5.32267 1.072 4.34667 1.584 3.472C2.10667 2.59733 2.82133 1.91467 3.728 1.424C4.63467 0.922667 5.65333 0.672 6.784 0.672C7.904 0.672 8.91733 0.922667 9.824 1.424C10.7307 1.91467 11.44 2.59733 11.952 3.472C12.464 4.336 12.72 5.312 12.72 6.4C12.72 7.488 12.464 8.46933 11.952 9.344C11.44 10.208 10.7307 10.8907 9.824 11.392C8.91733 11.8827 7.904 12.128 6.784 12.128ZM6.784 10.704C7.60533 10.704 8.34133 10.5173 8.992 10.144C9.65333 9.77067 10.1707 9.25867 10.544 8.608C10.928 7.94667 11.12 7.21067 11.12 6.4C11.12 5.58933 10.928 4.85867 10.544 4.208C10.1707 3.54667 9.65333 3.02933 8.992 2.656C8.34133 2.28267 7.60533 2.096 6.784 2.096C5.96267 2.096 5.216 2.28267 4.544 2.656C3.88267 3.02933 3.36 3.54667 2.976 4.208C2.60267 4.85867 2.416 5.58933 2.416 6.4C2.416 7.21067 2.60267 7.94667 2.976 8.608C3.36 9.25867 3.88267 9.77067 4.544 10.144C5.216 10.5173 5.96267 10.704 6.784 10.704ZM25.666 10.608V14.448H24.178V12H14.962L14.946 14.448H13.458L13.474 10.608H14.018C14.722 10.5653 15.218 10.0107 15.506 8.944C15.794 7.86667 15.97 6.352 16.034 4.4L16.146 0.799999H24.018V10.608H25.666ZM17.442 4.544C17.3887 6.12267 17.2607 7.42933 17.058 8.464C16.866 9.49867 16.5513 10.2133 16.114 10.608H22.434V2.192H17.522L17.442 4.544ZM27.8534 0.799999H29.4374V9.44L36.0614 0.799999H37.5334V12H35.9654V3.376L29.3254 12H27.8534V0.799999ZM50.6573 0.799999V12H49.0573V7.008H42.6253V12H41.0253V0.799999H42.6253V5.616H49.0573V0.799999H50.6573ZM58.4471 0.799999H66.8951V2.16H60.0311V5.36H63.5191C64.8525 5.36 65.8658 5.63733 66.5591 6.192C67.2525 6.74667 67.5991 7.54667 67.5991 8.592C67.5991 9.69067 67.2205 10.5333 66.4631 11.12C65.7165 11.7067 64.6445 12 63.2471 12H58.4471V0.799999ZM63.1831 10.736C64.1005 10.736 64.7991 10.56 65.2791 10.208C65.7591 9.856 65.9991 9.33867 65.9991 8.656C65.9991 7.30133 65.0605 6.624 63.1831 6.624H60.0311V10.736H63.1831ZM70.1503 0.799999H71.7343V9.44L78.3583 0.799999H79.8303V12H78.2623V3.376L71.6223 12H70.1503V0.799999ZM92.3335 0.799999V12H90.7655V2.192H85.8055L85.6935 5.472C85.6402 7.01867 85.5122 8.272 85.3095 9.232C85.1175 10.192 84.8082 10.9173 84.3815 11.408C83.9548 11.888 83.3788 12.128 82.6535 12.128C82.3228 12.128 81.9868 12.0853 81.6455 12L81.7575 10.576C81.9282 10.6187 82.0988 10.64 82.2695 10.64C82.7282 10.64 83.0962 10.4587 83.3735 10.096C83.6508 9.72267 83.8588 9.168 83.9975 8.432C84.1362 7.696 84.2268 6.72533 84.2695 5.52L84.4455 0.799999H92.3335ZM103.95 10.608V12H95.8221V0.799999H103.726V2.192H97.4221V5.632H103.038V6.992H97.4221V10.608H103.95ZM114.159 2.192H110.319V12H108.751V2.192H104.927V0.799999H114.159V2.192ZM118.656 7.072H126.656V8.144H118.656V7.072ZM140.393 2.192H136.553V12H134.985V2.192H131.161V0.799999H140.393V2.192ZM146.706 0.799999C148.156 0.799999 149.298 1.14667 150.13 1.84C150.962 2.53333 151.378 3.488 151.378 4.704C151.378 5.92 150.962 6.87467 150.13 7.568C149.298 8.26133 148.156 8.608 146.706 8.608H143.938V12H142.338V0.799999H146.706ZM146.658 7.216C147.671 7.216 148.444 7.00267 148.978 6.576C149.511 6.13867 149.778 5.51467 149.778 4.704C149.778 3.89333 149.511 3.27467 148.978 2.848C148.444 2.41067 147.671 2.192 146.658 2.192H143.938V7.216H146.658ZM153.603 0.799999H155.187V9.44L161.811 0.799999H163.283V12H161.715V3.376L155.075 12H153.603V0.799999ZM185.104 0.799999V12H171.072V0.799999H172.656V10.608H177.312V0.799999H178.88V10.608H183.536V0.799999H185.104ZM195.868 9.2H189.916L188.684 12H187.036L192.108 0.799999H193.692L198.78 12H197.1L195.868 9.2ZM195.308 7.92L192.892 2.432L190.476 7.92H195.308ZM210.345 0.799999V12H208.745V7.008H202.313V12H200.713V0.799999H202.313V5.616H208.745V0.799999H210.345ZM218.846 12.128C217.726 12.128 216.712 11.8827 215.806 11.392C214.91 10.8907 214.206 10.208 213.694 9.344C213.182 8.46933 212.926 7.488 212.926 6.4C212.926 5.312 213.182 4.336 213.694 3.472C214.206 2.59733 214.915 1.91467 215.822 1.424C216.728 0.922667 217.742 0.672 218.862 0.672C219.736 0.672 220.536 0.821333 221.262 1.12C221.987 1.408 222.606 1.84 223.118 2.416L222.078 3.424C221.235 2.53867 220.184 2.096 218.926 2.096C218.094 2.096 217.342 2.28267 216.67 2.656C215.998 3.02933 215.47 3.54667 215.086 4.208C214.712 4.85867 214.526 5.58933 214.526 6.4C214.526 7.21067 214.712 7.94667 215.086 8.608C215.47 9.25867 215.998 9.77067 216.67 10.144C217.342 10.5173 218.094 10.704 218.926 10.704C220.174 10.704 221.224 10.256 222.078 9.36L223.118 10.368C222.606 10.944 221.982 11.3813 221.246 11.68C220.52 11.9787 219.72 12.128 218.846 12.128ZM232.337 9.2H226.385L225.153 12H223.505L228.577 0.799999H230.161L235.249 12H233.569L232.337 9.2ZM231.777 7.92L229.361 2.432L226.945 7.92H231.777ZM251.11 0.799999V12H249.51V7.008H243.078V12H241.478V0.799999H243.078V5.616H249.51V0.799999H251.11ZM261.883 9.2H255.931L254.699 12H253.051L258.123 0.799999H259.707L264.795 12H263.115L261.883 9.2ZM261.323 7.92L258.907 2.432L256.491 7.92H261.323ZM280.193 0.799999L275.217 10.032C274.823 10.768 274.359 11.3173 273.825 11.68C273.292 12.0427 272.711 12.224 272.081 12.224C271.591 12.224 271.089 12.112 270.577 11.888L270.993 10.608C271.388 10.7467 271.74 10.816 272.049 10.816C272.753 10.816 273.335 10.4427 273.793 9.696L274.049 9.296L269.537 0.799999H271.249L274.881 7.904L278.609 0.799999H280.193ZM286.736 12.128C285.616 12.128 284.603 11.8827 283.696 11.392C282.8 10.8907 282.096 10.208 281.584 9.344C281.072 8.46933 280.816 7.488 280.816 6.4C280.816 5.312 281.072 4.336 281.584 3.472C282.096 2.59733 282.806 1.91467 283.712 1.424C284.619 0.922667 285.632 0.672 286.752 0.672C287.627 0.672 288.427 0.821333 289.152 1.12C289.878 1.408 290.496 1.84 291.008 2.416L289.968 3.424C289.126 2.53867 288.075 2.096 286.816 2.096C285.984 2.096 285.232 2.28267 284.56 2.656C283.888 3.02933 283.36 3.54667 282.976 4.208C282.603 4.85867 282.416 5.58933 282.416 6.4C282.416 7.21067 282.603 7.94667 282.976 8.608C283.36 9.25867 283.888 9.77067 284.56 10.144C285.232 10.5173 285.984 10.704 286.816 10.704C288.064 10.704 289.115 10.256 289.968 9.36L291.008 10.368C290.496 10.944 289.872 11.3813 289.136 11.68C288.411 11.9787 287.611 12.128 286.736 12.128ZM302.861 0.799999V12H301.293V2.192H294.797V12H293.213V0.799999H302.861ZM314.481 10.608V12H306.353V0.799999H314.257V2.192H307.953V5.632H313.569V6.992H307.953V10.608H314.481ZM317.509 0.799999L320.437 4.896L323.365 0.799999H325.237L321.445 6.176L325.541 12H323.653L320.437 7.536L317.237 12H315.397L319.477 6.24L315.669 0.799999H317.509ZM327.061 0.799999H328.869L328.565 8.464H327.349L327.061 0.799999ZM327.973 12.096C327.674 12.096 327.423 12 327.221 11.808C327.018 11.6053 326.917 11.36 326.917 11.072C326.917 10.784 327.018 10.544 327.221 10.352C327.423 10.1493 327.674 10.048 327.973 10.048C328.271 10.048 328.517 10.1493 328.709 10.352C328.901 10.544 328.997 10.784 328.997 11.072C328.997 11.36 328.895 11.6053 328.693 11.808C328.501 12 328.261 12.096 327.973 12.096Z" fill="url(#paint0_linear)"/>
<defs>
<linearGradient id="paint0_linear" x1="342" y1="6.0001" x2="-1.80379e-06" y2="6.00005" gradientUnits="userSpaceOnUse">
<stop stop-color="#FCFA53"/>
<stop offset="1" stop-color="#FFCD17"/>
</linearGradient>
</defs>
</svg>
