<svg width="260" height="44" viewBox="0 0 260 44" fill="none" xmlns="http://www.w3.org/2000/svg">
<path d="M8.904 15.168C7.42 15.168 6.083 14.846 4.893 14.202C3.703 13.544 2.765 12.641 2.079 11.493C1.407 10.345 1.071 9.064 1.071 7.65C1.071 6.236 1.407 4.955 2.079 3.807C2.765 2.659 3.703 1.763 4.893 1.119C6.083 0.461 7.42 0.132 8.904 0.132C10.374 0.132 11.704 0.461 12.894 1.119C14.084 1.763 15.015 2.659 15.687 3.807C16.359 4.941 16.695 6.222 16.695 7.65C16.695 9.078 16.359 10.366 15.687 11.514C15.015 12.648 14.084 13.544 12.894 14.202C11.704 14.846 10.374 15.168 8.904 15.168ZM8.904 13.299C9.982 13.299 10.948 13.054 11.802 12.564C12.67 12.074 13.349 11.402 13.839 10.548C14.343 9.68 14.595 8.714 14.595 7.65C14.595 6.586 14.343 5.627 13.839 4.773C13.349 3.905 12.67 3.226 11.802 2.736C10.948 2.246 9.982 2.001 8.904 2.001C7.826 2.001 6.846 2.246 5.964 2.736C5.096 3.226 4.41 3.905 3.906 4.773C3.416 5.627 3.171 6.586 3.171 7.65C3.171 8.714 3.416 9.68 3.906 10.548C4.41 11.402 5.096 12.074 5.964 12.564C6.846 13.054 7.826 13.299 8.904 13.299ZM33.6866 13.173V18.213H31.7336V15H19.6376L19.6166 18.213H17.6636L17.6846 13.173H18.3986C19.3226 13.117 19.9736 12.389 20.3516 10.989C20.7296 9.575 20.9606 7.587 21.0446 5.025L21.1916 0.299999H31.5236V13.173H33.6866ZM22.8926 5.214C22.8226 7.286 22.6546 9.001 22.3886 10.359C22.1366 11.717 21.7236 12.655 21.1496 13.173H29.4446V2.127H22.9976L22.8926 5.214ZM36.5576 0.299999H38.6366V11.64L47.3306 0.299999H49.2626V15H47.2046V3.681L38.4896 15H36.5576V0.299999ZM66.4876 0.299999V15H64.3876V8.448H55.9456V15H53.8456V0.299999H55.9456V6.621H64.3876V0.299999H66.4876ZM76.7119 0.299999H87.7999V2.085H78.7909V6.285H83.3689C85.1189 6.285 86.4489 6.649 87.3589 7.377C88.2689 8.105 88.7239 9.155 88.7239 10.527C88.7239 11.969 88.2269 13.075 87.2329 13.845C86.2529 14.615 84.8459 15 83.0119 15H76.7119V0.299999ZM82.9279 13.341C84.1319 13.341 85.0489 13.11 85.6789 12.648C86.3089 12.186 86.6239 11.507 86.6239 10.611C86.6239 8.833 85.3919 7.944 82.9279 7.944H78.7909V13.341H82.9279ZM92.0722 0.299999H94.1512V11.64L102.845 0.299999H104.777V15H102.719V3.681L94.0042 15H92.0722V0.299999ZM121.188 0.299999V15H119.13V2.127H112.62L112.473 6.432C112.403 8.462 112.235 10.107 111.969 11.367C111.717 12.627 111.311 13.579 110.751 14.223C110.191 14.853 109.435 15.168 108.483 15.168C108.049 15.168 107.608 15.112 107.16 15L107.307 13.131C107.531 13.187 107.755 13.215 107.979 13.215C108.581 13.215 109.064 12.977 109.428 12.501C109.792 12.011 110.065 11.283 110.247 10.317C110.429 9.351 110.548 8.077 110.604 6.495L110.835 0.299999H121.188ZM136.435 13.173V15H125.767V0.299999H136.141V2.127H127.867V6.642H135.238V8.427H127.867V13.173H136.435ZM149.833 2.127H144.793V15H142.735V2.127H137.716V0.299999H149.833V2.127ZM155.736 8.532H166.236V9.939H155.736V8.532ZM12.39 30.127H7.35V43H5.292V30.127H0.273V28.3H12.39V30.127ZM20.6753 28.3C22.5793 28.3 24.0773 28.755 25.1693 29.665C26.2613 30.575 26.8073 31.828 26.8073 33.424C26.8073 35.02 26.2613 36.273 25.1693 37.183C24.0773 38.093 22.5793 38.548 20.6753 38.548H17.0423V43H14.9423V28.3H20.6753ZM20.6123 36.721C21.9423 36.721 22.9573 36.441 23.6573 35.881C24.3573 35.307 24.7073 34.488 24.7073 33.424C24.7073 32.36 24.3573 31.548 23.6573 30.988C22.9573 30.414 21.9423 30.127 20.6123 30.127H17.0423V36.721H20.6123ZM29.7285 28.3H31.8075V39.64L40.5015 28.3H42.4335V43H40.3755V31.681L31.6605 43H29.7285V28.3ZM71.0732 28.3V43H52.6562V28.3H54.7352V41.173H60.8462V28.3H62.9042V41.173H69.0152V28.3H71.0732ZM85.2004 39.325H77.3884L75.7714 43H73.6084L80.2654 28.3H82.3444L89.0224 43H86.8174L85.2004 39.325ZM84.4654 37.645L81.2944 30.442L78.1234 37.645H84.4654ZM104.202 28.3V43H102.102V36.448H93.6595V43H91.5595V28.3H93.6595V34.621H102.102V28.3H104.202ZM115.359 43.168C113.889 43.168 112.559 42.846 111.369 42.202C110.193 41.544 109.269 40.648 108.597 39.514C107.925 38.366 107.589 37.078 107.589 35.65C107.589 34.222 107.925 32.941 108.597 31.807C109.269 30.659 110.2 29.763 111.39 29.119C112.58 28.461 113.91 28.132 115.38 28.132C116.528 28.132 117.578 28.328 118.53 28.72C119.482 29.098 120.294 29.665 120.966 30.421L119.601 31.744C118.495 30.582 117.116 30.001 115.464 30.001C114.372 30.001 113.385 30.246 112.503 30.736C111.621 31.226 110.928 31.905 110.424 32.773C109.934 33.627 109.689 34.586 109.689 35.65C109.689 36.714 109.934 37.68 110.424 38.548C110.928 39.402 111.621 40.074 112.503 40.564C113.385 41.054 114.372 41.299 115.464 41.299C117.102 41.299 118.481 40.711 119.601 39.535L120.966 40.858C120.294 41.614 119.475 42.188 118.509 42.58C117.557 42.972 116.507 43.168 115.359 43.168ZM133.066 39.325H125.254L123.637 43H121.474L128.131 28.3H130.21L136.888 43H134.683L133.066 39.325ZM132.331 37.645L129.16 30.442L125.989 37.645H132.331ZM157.706 28.3V43H155.606V36.448H147.164V43H145.064V28.3H147.164V34.621H155.606V28.3H157.706ZM171.846 39.325H164.034L162.417 43H160.254L166.911 28.3H168.99L175.668 43H173.463L171.846 39.325ZM171.111 37.645L167.94 30.442L164.769 37.645H171.111ZM195.878 28.3L189.347 40.417C188.829 41.383 188.22 42.104 187.52 42.58C186.82 43.056 186.057 43.294 185.231 43.294C184.587 43.294 183.929 43.147 183.257 42.853L183.803 41.173C184.321 41.355 184.783 41.446 185.189 41.446C186.113 41.446 186.876 40.956 187.478 39.976L187.814 39.451L181.892 28.3H184.139L188.906 37.624L193.799 28.3H195.878ZM204.466 43.168C202.996 43.168 201.666 42.846 200.476 42.202C199.3 41.544 198.376 40.648 197.704 39.514C197.032 38.366 196.696 37.078 196.696 35.65C196.696 34.222 197.032 32.941 197.704 31.807C198.376 30.659 199.307 29.763 200.497 29.119C201.687 28.461 203.017 28.132 204.487 28.132C205.635 28.132 206.685 28.328 207.637 28.72C208.589 29.098 209.401 29.665 210.073 30.421L208.708 31.744C207.602 30.582 206.223 30.001 204.571 30.001C203.479 30.001 202.492 30.246 201.61 30.736C200.728 31.226 200.035 31.905 199.531 32.773C199.041 33.627 198.796 34.586 198.796 35.65C198.796 36.714 199.041 37.68 199.531 38.548C200.035 39.402 200.728 40.074 201.61 40.564C202.492 41.054 203.479 41.299 204.571 41.299C206.209 41.299 207.588 40.711 208.708 39.535L210.073 40.858C209.401 41.614 208.582 42.188 207.616 42.58C206.664 42.972 205.614 43.168 204.466 43.168ZM225.629 28.3V43H223.571V30.127H215.045V43H212.966V28.3H225.629ZM240.881 41.173V43H230.213V28.3H240.587V30.127H232.313V34.642H239.684V36.427H232.313V41.173H240.881ZM244.855 28.3L248.698 33.676L252.541 28.3H254.998L250.021 35.356L255.397 43H252.919L248.698 37.141L244.498 43H242.083L247.438 35.44L242.44 28.3H244.855ZM257.391 28.3H259.764L259.365 38.359H257.769L257.391 28.3ZM258.588 43.126C258.196 43.126 257.867 43 257.601 42.748C257.335 42.482 257.202 42.16 257.202 41.782C257.202 41.404 257.335 41.089 257.601 40.837C257.867 40.571 258.196 40.438 258.588 40.438C258.98 40.438 259.302 40.571 259.554 40.837C259.806 41.089 259.932 41.404 259.932 41.782C259.932 42.16 259.799 42.482 259.533 42.748C259.281 43 258.966 43.126 258.588 43.126Z" fill="url(#paint0_linear)"/>
<defs>
<linearGradient id="paint0_linear" x1="289" y1="21.0002" x2="-1.52426e-06" y2="21.0002" gradientUnits="userSpaceOnUse">
<stop stop-color="#FCFA53"/>
<stop offset="1" stop-color="#FFCD17"/>
</linearGradient>
</defs>
</svg>
