<svg width="38" height="38" viewBox="0 0 38 38" fill="none" xmlns="http://www.w3.org/2000/svg">
<circle cx="19" cy="19" r="17" fill="url(#paint0_linear)"/>
<path d="M14.9866 26L12.6266 22.7L10.1866 26H6.78656L10.9266 20.58L6.92656 15.24H10.4266L12.7066 18.38L15.0466 15.24H18.3666L14.3666 20.5L18.5266 26H14.9866ZM25.8825 17.7C27.1092 17.9 28.0492 18.36 28.7025 19.08C29.3558 19.7867 29.6825 20.6667 29.6825 21.72C29.6825 22.5333 29.4692 23.2867 29.0425 23.98C28.6158 24.66 27.9625 25.2067 27.0825 25.62C26.2158 26.0333 25.1492 26.24 23.8825 26.24C22.8958 26.24 21.9225 26.1133 20.9625 25.86C20.0158 25.5933 19.2092 25.22 18.5425 24.74L19.8025 22.26C20.3358 22.66 20.9492 22.9733 21.6425 23.2C22.3492 23.4133 23.0692 23.52 23.8025 23.52C24.6158 23.52 25.2558 23.3667 25.7225 23.06C26.1892 22.74 26.4225 22.2933 26.4225 21.72C26.4225 20.5733 25.5492 20 23.8025 20H22.3225V17.86L25.2025 14.6H19.2425V12H29.0425V14.1L25.8825 17.7Z" fill="#09031B"/>
<defs>
<linearGradient id="paint0_linear" x1="31.1791" y1="6.31343" x2="9.86567" y2="33.7164" gradientUnits="userSpaceOnUse">
<stop stop-color="#FCFA53"/>
<stop offset="1" stop-color="#FFCD17"/>
</linearGradient>
</defs>
</svg>
